<svg xmlns="http://www.w3.org/2000/svg" viewBox="0 0 500 500"><g id="freepik--background-complete--inject-128"><path d="M417.41,60.85l13.12-.28,6.66-.11c2.23-.05,4.47,0,6.7-.06h.44v.45L444.39,72v.5h-.5l-13.24-.07c-4.42,0-8.83-.11-13.24-.16h-.28V72c0-1.9.09-3.79.13-5.66Zm0,0,.14,5.65c0,1.86.11,3.7.13,5.54l-.27-.28c4.41-.05,8.82-.16,13.24-.16l13.24-.06-.5.5.05-11.19.45.44c-2.18,0-4.36,0-6.55,0l-6.58-.11Z" style="fill:#ebebeb"></path><path d="M432.18,46.74l13.12-.28,6.66-.11c2.23-.05,4.47,0,6.7-.06h.44v.45l.06,11.19v.5h-.5l-13.24-.07c-4.41,0-8.83-.11-13.24-.16h-.28v-.27c0-1.9.08-3.79.13-5.66Zm0,0,.14,5.65c.05,1.86.11,3.71.13,5.54l-.27-.28c4.41,0,8.83-.15,13.24-.16l13.24-.06-.5.5,0-11.19.45.44c-2.18,0-4.36,0-6.55,0L445.53,47Z" style="fill:#ebebeb"></path><path d="M229.35,175.69l13.13-.28,6.66-.11c2.23-.05,4.46,0,6.69-.06h.45v.45l.05,11.19v.5h-.51l-13.24-.06c-4.41,0-8.82-.12-13.24-.17h-.27v-.27c0-1.9.09-3.79.13-5.65Zm0,0,.15,5.65c0,1.87.11,3.71.13,5.54l-.28-.27c4.42-.05,8.83-.16,13.24-.17l13.24-.06-.49.5,0-11.19.44.45c-2.18,0-4.35,0-6.54-.06l-6.58-.11Z" style="fill:#ebebeb"></path><path d="M244.13,161.58l13.12-.28,6.66-.11c2.23-.05,4.46,0,6.7-.06h.44v.45l.06,11.19v.5h-.5l-13.24-.06c-4.42,0-8.83-.12-13.24-.17h-.28v-.27c0-1.9.09-3.79.13-5.65Zm0,0,.14,5.65c0,1.87.11,3.71.13,5.54l-.27-.27c4.41-.05,8.82-.16,13.24-.17l13.24-.06-.5.5.05-11.19.45.45c-2.19,0-4.36,0-6.55-.06l-6.58-.11Z" style="fill:#ebebeb"></path><path d="M258.84,175.69l13.12-.28,6.67-.11c2.22-.05,4.46,0,6.69-.06h.44v.45l.05,11.19v.5h-.5l-13.24-.06c-4.41,0-8.83-.12-13.24-.17h-.28v-.27c0-1.9.08-3.79.13-5.65Zm0,0,.14,5.65c0,1.87.11,3.71.13,5.54l-.27-.27c4.41-.05,8.83-.16,13.24-.17l13.24-.06-.5.5.05-11.19.45.45c-2.18,0-4.36,0-6.55-.06l-6.58-.11Z" style="fill:#ebebeb"></path><path d="M41.34,46.74l13.13-.28,6.66-.11c2.22-.05,4.46,0,6.69-.06h.45v.45l0,11.19v.5h-.5l-13.24-.07c-4.41,0-8.83-.11-13.24-.16h-.27v-.27c0-1.9.08-3.79.13-5.66Zm0,0,.14,5.65c.05,1.86.12,3.71.13,5.54l-.27-.28c4.41,0,8.83-.15,13.24-.16l13.24-.06-.5.5.06-11.19.44.44c-2.18,0-4.36,0-6.54,0L54.7,47Z" style="fill:#ebebeb"></path><path d="M56.11,329.85l13.13-.28,6.66-.11c2.22,0,4.46,0,6.69-.06H83v.45l0,11.19v.5h-.51l-13.24-.07c-4.41,0-8.82-.11-13.24-.16h-.27V341c0-1.9.09-3.79.13-5.66Zm0,0,.14,5.65c0,1.86.12,3.71.14,5.54l-.28-.28c4.42-.05,8.83-.15,13.24-.16l13.24-.06-.5.5.06-11.19.44.44c-2.18,0-4.35,0-6.54-.05l-6.58-.11Z" style="fill:#ebebeb"></path><path d="M41.34,315.74l13.13-.28,6.66-.11c2.22-.05,4.46,0,6.69-.06h.45v.45l0,11.19v.5h-.5l-13.24-.07c-4.41,0-8.83-.11-13.24-.16h-.27v-.27c0-1.9.08-3.79.13-5.66Zm0,0,.14,5.65c.05,1.86.12,3.71.13,5.54l-.27-.28c4.41,0,8.83-.15,13.24-.16l13.24-.06-.5.5.06-11.19.44.44c-2.18,0-4.36,0-6.54-.05L54.7,316Z" style="fill:#ebebeb"></path><path d="M417.41,329.85l13.12-.28,6.66-.11c2.23,0,4.47,0,6.7-.06h.44v.45l.06,11.19v.5h-.5l-13.24-.07c-4.42,0-8.83-.11-13.24-.16h-.28V341c0-1.9.09-3.79.13-5.66Zm0,0,.14,5.65c0,1.86.11,3.71.13,5.54l-.27-.28c4.41-.05,8.82-.15,13.24-.16l13.24-.06-.5.5.05-11.19.45.44c-2.18,0-4.36,0-6.55-.05l-6.58-.11Z" style="fill:#ebebeb"></path><polygon points="378.78 442.48 377.78 442.48 377.78 316.98 351.05 280.5 351.05 212 352.05 212 352.05 280.17 378.78 316.65 378.78 442.48" style="fill:#ebebeb"></polygon><path d="M351.55,212.54a2.88,2.88,0,1,1,2.87-2.88A2.88,2.88,0,0,1,351.55,212.54Zm0-4.75a1.88,1.88,0,1,0,1.87,1.87A1.88,1.88,0,0,0,351.55,207.79Z" style="fill:#ebebeb"></path><polygon points="371.89 442.48 370.89 442.48 370.89 321.39 344.16 284.9 344.16 237 345.16 237 345.16 284.58 371.89 321.06 371.89 442.48" style="fill:#ebebeb"></polygon><path d="M344.66,237.54a2.88,2.88,0,1,1,2.88-2.88A2.88,2.88,0,0,1,344.66,237.54Zm0-4.75a1.88,1.88,0,1,0,1.88,1.87A1.87,1.87,0,0,0,344.66,232.79Z" style="fill:#ebebeb"></path><rect x="384.41" y="276.07" width="1" height="166.41" style="fill:#ebebeb"></rect><path d="M384.91,276.57a2.88,2.88,0,1,1,2.88-2.88A2.88,2.88,0,0,1,384.91,276.57Zm0-4.75a1.88,1.88,0,1,0,1.88,1.87A1.87,1.87,0,0,0,384.91,271.82Z" style="fill:#ebebeb"></path><polygon points="391.8 442.48 390.8 442.48 390.8 357.78 408.94 323.55 408.94 262.31 409.94 262.31 409.94 323.8 391.8 358.03 391.8 442.48" style="fill:#ebebeb"></polygon><path d="M409.44,262.81a2.88,2.88,0,1,1,2.88-2.87A2.88,2.88,0,0,1,409.44,262.81Zm0-4.75a1.88,1.88,0,1,0,1.88,1.88A1.88,1.88,0,0,0,409.44,258.06Z" style="fill:#ebebeb"></path><polygon points="398.15 442.48 397.15 442.48 397.15 361.43 418.54 323.59 418.54 283.31 419.54 283.31 419.54 323.85 398.15 361.69 398.15 442.48" style="fill:#ebebeb"></polygon><path d="M419,283.8a2.88,2.88,0,1,1,2.88-2.87A2.88,2.88,0,0,1,419,283.8Zm0-4.75a1.88,1.88,0,1,0,1.88,1.88A1.88,1.88,0,0,0,419,279.05Z" style="fill:#ebebeb"></path><path d="M438.52,223.78l7-11.25-3.45-2.14a3.15,3.15,0,0,1-1.46-3,16.37,16.37,0,0,0,.06-2,3.14,3.14,0,0,1,1.65-2.85l3.57-1.92L439.61,189,436,190.92a3.15,3.15,0,0,1-3.29-.21,17.44,17.44,0,0,0-1.69-1,3.15,3.15,0,0,1-1.65-2.86l.12-4.05-13.23-.41-.12,4.07a3.17,3.17,0,0,1-1.85,2.74c-.29.13-.58.28-.87.43l-.85.49a3.12,3.12,0,0,1-3.28,0L405.86,188l-7,11.25,3.45,2.14a3.17,3.17,0,0,1,1.46,3,18.44,18.44,0,0,0-.07,2,3.12,3.12,0,0,1-1.64,2.85l-3.57,1.92,6.26,11.67,3.57-1.91a3.11,3.11,0,0,1,3.28.21c.55.37,1.11.72,1.68,1a3.17,3.17,0,0,1,1.67,2.86l-.13,4.06,13.23.41.13-4.06a3.15,3.15,0,0,1,1.84-2.73c.29-.14.59-.29.88-.45s.57-.31.85-.48a3.16,3.16,0,0,1,3.3,0Zm-11.21-8.36a10.84,10.84,0,1,1,4.44-14.68A10.83,10.83,0,0,1,427.31,215.42Z" style="fill:#ebebeb"></path><path d="M74.62,127.18l8-4.63-1.42-2.46a2.23,2.23,0,0,1,.08-2.31c.25-.39.49-.79.7-1.2a2.17,2.17,0,0,1,2-1.22h2.84v-9.28H84a2.19,2.19,0,0,1-2-1.22,11.77,11.77,0,0,0-.7-1.2,2.25,2.25,0,0,1-.08-2.32l1.42-2.45-8-4.64L73.2,96.72a2.22,2.22,0,0,1-2,1.08l-.68,0-.68,0a2.21,2.21,0,0,1-2-1.07l-1.43-2.48-8,4.64,1.43,2.46a2.21,2.21,0,0,1-.09,2.31q-.37.59-.69,1.2a2.21,2.21,0,0,1-2,1.22H54.13v9.28H57a2.2,2.2,0,0,1,2,1.21,11.7,11.7,0,0,0,.69,1.2,2.21,2.21,0,0,1,.09,2.31l-1.43,2.47,8,4.63,1.42-2.46a2.22,2.22,0,0,1,2-1.08l.69,0,.68,0a2.22,2.22,0,0,1,2,1.08Zm-4.15-8.86a7.6,7.6,0,1,1,7.6-7.6A7.6,7.6,0,0,1,70.47,118.32Z" style="fill:#ebebeb"></path><path d="M397.65,231.92l-4.64-8-2.46,1.42a2.23,2.23,0,0,1-2.31-.08c-.39-.25-.79-.49-1.2-.7a2.19,2.19,0,0,1-1.22-2v-2.84h-9.28v2.84a2.19,2.19,0,0,1-1.22,2c-.41.21-.81.45-1.2.7a2.23,2.23,0,0,1-2.31.08l-2.46-1.42-4.64,8,2.47,1.42a2.21,2.21,0,0,1,1.08,2c0,.22,0,.45,0,.68s0,.46,0,.68a2.2,2.2,0,0,1-1.07,2l-2.48,1.43,4.64,8,2.46-1.43a2.23,2.23,0,0,1,2.32.09,12.71,12.71,0,0,0,1.19.69,2.21,2.21,0,0,1,1.22,2v2.84h9.28v-2.84a2.2,2.2,0,0,1,1.22-2,12.71,12.71,0,0,0,1.19-.69,2.21,2.21,0,0,1,2.31-.09l2.47,1.43,4.64-8-2.47-1.42a2.22,2.22,0,0,1-1.08-2c0-.23,0-.46,0-.69s0-.46,0-.68a2.22,2.22,0,0,1,1.08-2Zm-8.87,4.15a7.6,7.6,0,1,1-7.6-7.6A7.6,7.6,0,0,1,388.78,236.07Z" style="fill:#ebebeb"></path><rect x="155.21" y="201.78" width="56.43" height="240.79" transform="translate(366.85 644.35) rotate(180)" style="fill:#c7c7c7"></rect><rect x="51.35" y="201.78" width="103.86" height="240.79" transform="translate(206.56 644.35) rotate(180)" style="fill:#ebebeb"></rect><rect x="57.84" y="414.97" width="89.58" height="20.69" transform="translate(205.27 850.63) rotate(180)" style="fill:#dbdbdb"></rect><rect x="92.66" y="418.39" width="50.99" height="1.75" transform="translate(236.31 838.52) rotate(180)" style="fill:#ebebeb"></rect><rect x="92.66" y="421.41" width="50.99" height="1.75" transform="translate(236.31 844.57) rotate(180)" style="fill:#ebebeb"></rect><rect x="92.66" y="424.44" width="50.99" height="1.75" transform="translate(236.31 850.63) rotate(180)" style="fill:#ebebeb"></rect><rect x="92.66" y="427.47" width="50.99" height="1.75" transform="translate(236.31 856.68) rotate(180)" style="fill:#ebebeb"></rect><rect x="92.66" y="430.49" width="50.99" height="1.75" transform="translate(236.31 862.73) rotate(180)" style="fill:#ebebeb"></rect><path d="M83.37,420.12a1.73,1.73,0,1,0,1.73-1.73A1.73,1.73,0,0,0,83.37,420.12Z" style="fill:#fff"></path><path d="M77.66,420.12a1.73,1.73,0,1,0,1.73-1.73A1.73,1.73,0,0,0,77.66,420.12Z" style="fill:#fff"></path><path d="M72,420.12a1.73,1.73,0,1,0,1.73-1.73A1.74,1.74,0,0,0,72,420.12Z" style="fill:#fff"></path><path d="M66.24,420.12A1.73,1.73,0,1,0,68,418.39,1.74,1.74,0,0,0,66.24,420.12Z" style="fill:#fff"></path><path d="M60.53,420.12a1.74,1.74,0,1,0,1.73-1.73A1.74,1.74,0,0,0,60.53,420.12Z" style="fill:#fff"></path><path d="M83.37,425.31a1.73,1.73,0,1,0,1.73-1.73A1.72,1.72,0,0,0,83.37,425.31Z" style="fill:#fff"></path><path d="M77.66,425.31a1.73,1.73,0,1,0,1.73-1.73A1.72,1.72,0,0,0,77.66,425.31Z" style="fill:#fff"></path><path d="M72,425.31a1.73,1.73,0,1,0,1.73-1.73A1.73,1.73,0,0,0,72,425.31Z" style="fill:#fff"></path><path d="M66.24,425.31A1.73,1.73,0,1,0,68,423.58,1.73,1.73,0,0,0,66.24,425.31Z" style="fill:#fff"></path><path d="M60.53,425.31a1.74,1.74,0,1,0,1.73-1.73A1.73,1.73,0,0,0,60.53,425.31Z" style="fill:#fff"></path><path d="M83.37,430.51a1.73,1.73,0,1,0,1.73-1.73A1.73,1.73,0,0,0,83.37,430.51Z" style="fill:#fff"></path><path d="M77.66,430.51a1.73,1.73,0,1,0,1.73-1.73A1.73,1.73,0,0,0,77.66,430.51Z" style="fill:#fff"></path><path d="M72,430.51a1.73,1.73,0,1,0,1.73-1.73A1.74,1.74,0,0,0,72,430.51Z" style="fill:#fff"></path><path d="M66.24,430.51A1.73,1.73,0,1,0,68,428.78,1.74,1.74,0,0,0,66.24,430.51Z" style="fill:#fff"></path><path d="M60.53,430.51a1.74,1.74,0,1,0,1.73-1.73A1.74,1.74,0,0,0,60.53,430.51Z" style="fill:#fff"></path><rect x="89.12" y="418.39" width="1" height="13.85" transform="translate(179.23 850.63) rotate(180)" style="fill:#c7c7c7"></rect><rect x="57.84" y="390.04" width="89.58" height="20.69" transform="translate(205.27 800.76) rotate(180)" style="fill:#dbdbdb"></rect><rect x="92.66" y="393.45" width="50.99" height="1.75" transform="translate(236.31 788.65) rotate(180)" style="fill:#ebebeb"></rect><rect x="92.66" y="396.48" width="50.99" height="1.75" transform="translate(236.31 794.7) rotate(180)" style="fill:#ebebeb"></rect><rect x="92.66" y="399.51" width="50.99" height="1.75" transform="translate(236.31 800.76) rotate(180)" style="fill:#ebebeb"></rect><rect x="92.66" y="402.53" width="50.99" height="1.75" transform="translate(236.31 806.81) rotate(180)" style="fill:#ebebeb"></rect><rect x="92.66" y="405.56" width="50.99" height="1.75" transform="translate(236.31 812.87) rotate(180)" style="fill:#ebebeb"></rect><circle cx="85.1" cy="395.18" r="1.73" style="fill:#fff"></circle><circle cx="79.39" cy="395.18" r="1.73" style="fill:#fff"></circle><path d="M72,395.18a1.73,1.73,0,1,0,1.73-1.73A1.74,1.74,0,0,0,72,395.18Z" style="fill:#fff"></path><path d="M66.24,395.18A1.73,1.73,0,1,0,68,393.45,1.74,1.74,0,0,0,66.24,395.18Z" style="fill:#fff"></path><path d="M60.53,395.18a1.74,1.74,0,1,0,1.73-1.73A1.74,1.74,0,0,0,60.53,395.18Z" style="fill:#fff"></path><circle cx="85.1" cy="400.38" r="1.73" style="fill:#fff"></circle><circle cx="79.39" cy="400.38" r="1.73" style="fill:#fff"></circle><path d="M72,400.38a1.73,1.73,0,1,0,1.73-1.73A1.73,1.73,0,0,0,72,400.38Z" style="fill:#fff"></path><path d="M66.24,400.38A1.73,1.73,0,1,0,68,398.65,1.73,1.73,0,0,0,66.24,400.38Z" style="fill:#fff"></path><path d="M60.53,400.38a1.74,1.74,0,1,0,1.73-1.73A1.73,1.73,0,0,0,60.53,400.38Z" style="fill:#fff"></path><circle cx="85.1" cy="405.57" r="1.73" style="fill:#fff"></circle><circle cx="79.39" cy="405.57" r="1.73" style="fill:#fff"></circle><path d="M72,405.57a1.73,1.73,0,1,0,1.73-1.73A1.74,1.74,0,0,0,72,405.57Z" style="fill:#fff"></path><path d="M66.24,405.57A1.73,1.73,0,1,0,68,403.84,1.74,1.74,0,0,0,66.24,405.57Z" style="fill:#fff"></path><path d="M60.53,405.57a1.74,1.74,0,1,0,1.73-1.73A1.74,1.74,0,0,0,60.53,405.57Z" style="fill:#fff"></path><rect x="89.12" y="393.45" width="1" height="13.85" transform="translate(179.23 800.76) rotate(180)" style="fill:#c7c7c7"></rect><rect x="57.84" y="365.1" width="89.58" height="20.69" transform="translate(205.27 750.89) rotate(180)" style="fill:#dbdbdb"></rect><rect x="92.66" y="368.52" width="50.99" height="1.75" transform="translate(236.31 738.78) rotate(180)" style="fill:#ebebeb"></rect><rect x="92.66" y="371.55" width="50.99" height="1.75" transform="translate(236.31 744.84) rotate(180)" style="fill:#ebebeb"></rect><rect x="92.66" y="374.57" width="50.99" height="1.75" transform="translate(236.31 750.89) rotate(180)" style="fill:#ebebeb"></rect><rect x="92.66" y="377.6" width="50.99" height="1.75" transform="translate(236.31 756.95) rotate(180)" style="fill:#ebebeb"></rect><rect x="92.66" y="380.63" width="50.99" height="1.75" transform="translate(236.31 763) rotate(180)" style="fill:#ebebeb"></rect><path d="M83.37,370.25a1.73,1.73,0,1,0,1.73-1.73A1.72,1.72,0,0,0,83.37,370.25Z" style="fill:#fff"></path><path d="M77.66,370.25a1.73,1.73,0,1,0,1.73-1.73A1.72,1.72,0,0,0,77.66,370.25Z" style="fill:#fff"></path><path d="M72,370.25a1.73,1.73,0,1,0,1.73-1.73A1.73,1.73,0,0,0,72,370.25Z" style="fill:#fff"></path><path d="M66.24,370.25A1.73,1.73,0,1,0,68,368.52,1.73,1.73,0,0,0,66.24,370.25Z" style="fill:#fff"></path><path d="M60.53,370.25a1.74,1.74,0,1,0,1.73-1.73A1.73,1.73,0,0,0,60.53,370.25Z" style="fill:#fff"></path><path d="M83.37,375.45a1.73,1.73,0,1,0,1.73-1.74A1.73,1.73,0,0,0,83.37,375.45Z" style="fill:#fff"></path><path d="M77.66,375.45a1.73,1.73,0,1,0,1.73-1.74A1.73,1.73,0,0,0,77.66,375.45Z" style="fill:#fff"></path><path d="M72,375.45a1.73,1.73,0,1,0,1.73-1.74A1.74,1.74,0,0,0,72,375.45Z" style="fill:#fff"></path><path d="M66.24,375.45A1.73,1.73,0,1,0,68,373.71,1.74,1.74,0,0,0,66.24,375.45Z" style="fill:#fff"></path><path d="M60.53,375.45a1.74,1.74,0,1,0,1.73-1.74A1.74,1.74,0,0,0,60.53,375.45Z" style="fill:#fff"></path><path d="M83.37,380.64a1.73,1.73,0,1,0,1.73-1.73A1.72,1.72,0,0,0,83.37,380.64Z" style="fill:#fff"></path><path d="M77.66,380.64a1.73,1.73,0,1,0,1.73-1.73A1.72,1.72,0,0,0,77.66,380.64Z" style="fill:#fff"></path><path d="M72,380.64a1.73,1.73,0,1,0,1.73-1.73A1.73,1.73,0,0,0,72,380.64Z" style="fill:#fff"></path><path d="M66.24,380.64A1.73,1.73,0,1,0,68,378.91,1.73,1.73,0,0,0,66.24,380.64Z" style="fill:#fff"></path><path d="M60.53,380.64a1.74,1.74,0,1,0,1.73-1.73A1.73,1.73,0,0,0,60.53,380.64Z" style="fill:#fff"></path><rect x="89.12" y="368.52" width="1" height="13.85" transform="translate(179.23 750.89) rotate(180)" style="fill:#c7c7c7"></rect><rect x="57.84" y="340.17" width="89.58" height="20.69" transform="translate(205.27 701.03) rotate(180)" style="fill:#dbdbdb"></rect><rect x="92.66" y="343.59" width="50.99" height="1.75" transform="translate(236.31 688.92) rotate(180)" style="fill:#ebebeb"></rect><rect x="92.66" y="346.61" width="50.99" height="1.75" transform="translate(236.31 694.97) rotate(180)" style="fill:#ebebeb"></rect><rect x="92.66" y="349.64" width="50.99" height="1.75" transform="translate(236.31 701.03) rotate(180)" style="fill:#ebebeb"></rect><rect x="92.66" y="352.67" width="50.99" height="1.75" transform="translate(236.31 707.08) rotate(180)" style="fill:#ebebeb"></rect><rect x="92.66" y="355.69" width="50.99" height="1.75" transform="translate(236.31 713.13) rotate(180)" style="fill:#ebebeb"></rect><path d="M83.37,345.32a1.73,1.73,0,1,0,1.73-1.73A1.73,1.73,0,0,0,83.37,345.32Z" style="fill:#fff"></path><path d="M77.66,345.32a1.73,1.73,0,1,0,1.73-1.73A1.73,1.73,0,0,0,77.66,345.32Z" style="fill:#fff"></path><path d="M72,345.32a1.73,1.73,0,1,0,1.73-1.73A1.74,1.74,0,0,0,72,345.32Z" style="fill:#fff"></path><path d="M66.24,345.32A1.73,1.73,0,1,0,68,343.59,1.74,1.74,0,0,0,66.24,345.32Z" style="fill:#fff"></path><path d="M60.53,345.32a1.74,1.74,0,1,0,1.73-1.73A1.74,1.74,0,0,0,60.53,345.32Z" style="fill:#fff"></path><path d="M83.37,350.51a1.73,1.73,0,1,0,1.73-1.73A1.72,1.72,0,0,0,83.37,350.51Z" style="fill:#fff"></path><path d="M77.66,350.51a1.73,1.73,0,1,0,1.73-1.73A1.72,1.72,0,0,0,77.66,350.51Z" style="fill:#fff"></path><path d="M72,350.51a1.73,1.73,0,1,0,1.73-1.73A1.73,1.73,0,0,0,72,350.51Z" style="fill:#fff"></path><path d="M66.24,350.51A1.73,1.73,0,1,0,68,348.78,1.73,1.73,0,0,0,66.24,350.51Z" style="fill:#fff"></path><path d="M60.53,350.51a1.74,1.74,0,1,0,1.73-1.73A1.73,1.73,0,0,0,60.53,350.51Z" style="fill:#fff"></path><path d="M83.37,355.71A1.73,1.73,0,1,0,85.1,354,1.73,1.73,0,0,0,83.37,355.71Z" style="fill:#fff"></path><path d="M77.66,355.71A1.73,1.73,0,1,0,79.39,354,1.73,1.73,0,0,0,77.66,355.71Z" style="fill:#fff"></path><path d="M72,355.71A1.73,1.73,0,1,0,73.68,354,1.74,1.74,0,0,0,72,355.71Z" style="fill:#fff"></path><path d="M66.24,355.71A1.73,1.73,0,1,0,68,354,1.74,1.74,0,0,0,66.24,355.71Z" style="fill:#fff"></path><path d="M60.53,355.71A1.74,1.74,0,1,0,62.26,354,1.74,1.74,0,0,0,60.53,355.71Z" style="fill:#fff"></path><rect x="89.12" y="343.59" width="1" height="13.85" transform="translate(179.23 701.03) rotate(180)" style="fill:#c7c7c7"></rect><rect x="57.84" y="315.24" width="89.58" height="20.69" transform="translate(205.27 651.16) rotate(180)" style="fill:#dbdbdb"></rect><rect x="92.66" y="318.65" width="50.99" height="1.75" transform="translate(236.31 639.05) rotate(180)" style="fill:#ebebeb"></rect><rect x="92.66" y="321.68" width="50.99" height="1.75" transform="translate(236.31 645.11) rotate(180)" style="fill:#ebebeb"></rect><rect x="92.66" y="324.71" width="50.99" height="1.75" transform="translate(236.31 651.16) rotate(180)" style="fill:#ebebeb"></rect><rect x="92.66" y="327.73" width="50.99" height="1.75" transform="translate(236.31 657.21) rotate(180)" style="fill:#ebebeb"></rect><rect x="92.66" y="330.76" width="50.99" height="1.75" transform="translate(236.31 663.27) rotate(180)" style="fill:#ebebeb"></rect><path d="M83.37,320.38a1.73,1.73,0,1,0,1.73-1.73A1.73,1.73,0,0,0,83.37,320.38Z" style="fill:#fff"></path><path d="M77.66,320.38a1.73,1.73,0,1,0,1.73-1.73A1.73,1.73,0,0,0,77.66,320.38Z" style="fill:#fff"></path><path d="M72,320.38a1.73,1.73,0,1,0,1.73-1.73A1.74,1.74,0,0,0,72,320.38Z" style="fill:#fff"></path><path d="M66.24,320.38A1.73,1.73,0,1,0,68,318.65,1.74,1.74,0,0,0,66.24,320.38Z" style="fill:#fff"></path><path d="M60.53,320.38a1.74,1.74,0,1,0,1.73-1.73A1.74,1.74,0,0,0,60.53,320.38Z" style="fill:#fff"></path><path d="M83.37,325.58a1.73,1.73,0,1,0,1.73-1.73A1.72,1.72,0,0,0,83.37,325.58Z" style="fill:#fff"></path><path d="M77.66,325.58a1.73,1.73,0,1,0,1.73-1.73A1.72,1.72,0,0,0,77.66,325.58Z" style="fill:#fff"></path><path d="M72,325.58a1.73,1.73,0,1,0,1.73-1.73A1.73,1.73,0,0,0,72,325.58Z" style="fill:#fff"></path><path d="M66.24,325.58A1.73,1.73,0,1,0,68,323.85,1.73,1.73,0,0,0,66.24,325.58Z" style="fill:#fff"></path><path d="M60.53,325.58a1.74,1.74,0,1,0,1.73-1.73A1.73,1.73,0,0,0,60.53,325.58Z" style="fill:#fff"></path><path d="M83.37,330.77A1.73,1.73,0,1,0,85.1,329,1.73,1.73,0,0,0,83.37,330.77Z" style="fill:#fff"></path><path d="M77.66,330.77A1.73,1.73,0,1,0,79.39,329,1.73,1.73,0,0,0,77.66,330.77Z" style="fill:#fff"></path><path d="M72,330.77A1.73,1.73,0,1,0,73.68,329,1.74,1.74,0,0,0,72,330.77Z" style="fill:#fff"></path><path d="M66.24,330.77A1.73,1.73,0,1,0,68,329,1.74,1.74,0,0,0,66.24,330.77Z" style="fill:#fff"></path><path d="M60.53,330.77A1.74,1.74,0,1,0,62.26,329,1.74,1.74,0,0,0,60.53,330.77Z" style="fill:#fff"></path><rect x="89.12" y="318.65" width="1" height="13.85" transform="translate(179.23 651.16) rotate(180)" style="fill:#c7c7c7"></rect><rect x="57.84" y="290.3" width="89.58" height="20.69" transform="translate(205.27 601.29) rotate(180)" style="fill:#dbdbdb"></rect><rect x="92.66" y="293.72" width="50.99" height="1.75" transform="translate(236.31 589.19) rotate(180)" style="fill:#ebebeb"></rect><rect x="92.66" y="296.75" width="50.99" height="1.75" transform="translate(236.31 595.24) rotate(180)" style="fill:#ebebeb"></rect><rect x="92.66" y="299.77" width="50.99" height="1.75" transform="translate(236.31 601.29) rotate(180)" style="fill:#ebebeb"></rect><rect x="92.66" y="302.8" width="50.99" height="1.75" transform="translate(236.31 607.35) rotate(180)" style="fill:#ebebeb"></rect><rect x="92.66" y="305.83" width="50.99" height="1.75" transform="translate(236.31 613.4) rotate(180)" style="fill:#ebebeb"></rect><path d="M83.37,295.45a1.73,1.73,0,1,0,1.73-1.73A1.72,1.72,0,0,0,83.37,295.45Z" style="fill:#fff"></path><path d="M77.66,295.45a1.73,1.73,0,1,0,1.73-1.73A1.72,1.72,0,0,0,77.66,295.45Z" style="fill:#fff"></path><path d="M72,295.45a1.73,1.73,0,1,0,1.73-1.73A1.73,1.73,0,0,0,72,295.45Z" style="fill:#fff"></path><path d="M66.24,295.45A1.73,1.73,0,1,0,68,293.72,1.73,1.73,0,0,0,66.24,295.45Z" style="fill:#fff"></path><path d="M60.53,295.45a1.74,1.74,0,1,0,1.73-1.73A1.73,1.73,0,0,0,60.53,295.45Z" style="fill:#fff"></path><path d="M83.37,300.65a1.73,1.73,0,1,0,1.73-1.74A1.73,1.73,0,0,0,83.37,300.65Z" style="fill:#fff"></path><path d="M77.66,300.65a1.73,1.73,0,1,0,1.73-1.74A1.73,1.73,0,0,0,77.66,300.65Z" style="fill:#fff"></path><path d="M72,300.65a1.73,1.73,0,1,0,1.73-1.74A1.74,1.74,0,0,0,72,300.65Z" style="fill:#fff"></path><path d="M66.24,300.65A1.73,1.73,0,1,0,68,298.91,1.74,1.74,0,0,0,66.24,300.65Z" style="fill:#fff"></path><path d="M60.53,300.65a1.74,1.74,0,1,0,1.73-1.74A1.74,1.74,0,0,0,60.53,300.65Z" style="fill:#fff"></path><path d="M83.37,305.84a1.73,1.73,0,1,0,1.73-1.73A1.72,1.72,0,0,0,83.37,305.84Z" style="fill:#fff"></path><path d="M77.66,305.84a1.73,1.73,0,1,0,1.73-1.73A1.72,1.72,0,0,0,77.66,305.84Z" style="fill:#fff"></path><path d="M72,305.84a1.73,1.73,0,1,0,1.73-1.73A1.73,1.73,0,0,0,72,305.84Z" style="fill:#fff"></path><path d="M66.24,305.84A1.73,1.73,0,1,0,68,304.11,1.73,1.73,0,0,0,66.24,305.84Z" style="fill:#fff"></path><path d="M60.53,305.84a1.74,1.74,0,1,0,1.73-1.73A1.73,1.73,0,0,0,60.53,305.84Z" style="fill:#fff"></path><rect x="89.12" y="293.72" width="1" height="13.85" transform="translate(179.23 601.29) rotate(180)" style="fill:#c7c7c7"></rect><rect x="57.84" y="265.37" width="89.58" height="20.69" transform="translate(205.27 551.43) rotate(180)" style="fill:#dbdbdb"></rect><rect x="92.66" y="268.79" width="50.99" height="1.75" transform="translate(236.31 539.32) rotate(180)" style="fill:#ebebeb"></rect><rect x="92.66" y="271.81" width="50.99" height="1.75" transform="translate(236.31 545.37) rotate(180)" style="fill:#ebebeb"></rect><rect x="92.66" y="274.84" width="50.99" height="1.75" transform="translate(236.31 551.43) rotate(180)" style="fill:#ebebeb"></rect><rect x="92.66" y="277.87" width="50.99" height="1.75" transform="translate(236.31 557.48) rotate(180)" style="fill:#ebebeb"></rect><rect x="92.66" y="280.89" width="50.99" height="1.75" transform="translate(236.31 563.53) rotate(180)" style="fill:#ebebeb"></rect><circle cx="85.1" cy="270.52" r="1.73" style="fill:#fff"></circle><circle cx="79.39" cy="270.52" r="1.73" style="fill:#fff"></circle><path d="M72,270.52a1.73,1.73,0,1,0,1.73-1.73A1.74,1.74,0,0,0,72,270.52Z" style="fill:#fff"></path><path d="M66.24,270.52A1.73,1.73,0,1,0,68,268.79,1.74,1.74,0,0,0,66.24,270.52Z" style="fill:#fff"></path><path d="M60.53,270.52a1.74,1.74,0,1,0,1.73-1.73A1.74,1.74,0,0,0,60.53,270.52Z" style="fill:#fff"></path><circle cx="85.1" cy="275.71" r="1.73" style="fill:#fff"></circle><circle cx="79.39" cy="275.71" r="1.73" style="fill:#fff"></circle><path d="M72,275.71A1.73,1.73,0,1,0,73.68,274,1.73,1.73,0,0,0,72,275.71Z" style="fill:#fff"></path><path d="M66.24,275.71A1.73,1.73,0,1,0,68,274,1.73,1.73,0,0,0,66.24,275.71Z" style="fill:#fff"></path><path d="M60.53,275.71A1.74,1.74,0,1,0,62.26,274,1.73,1.73,0,0,0,60.53,275.71Z" style="fill:#fff"></path><circle cx="85.1" cy="280.91" r="1.73" style="fill:#fff"></circle><circle cx="79.39" cy="280.91" r="1.73" style="fill:#fff"></circle><path d="M72,280.91a1.73,1.73,0,1,0,1.73-1.73A1.74,1.74,0,0,0,72,280.91Z" style="fill:#fff"></path><path d="M66.24,280.91A1.73,1.73,0,1,0,68,279.18,1.74,1.74,0,0,0,66.24,280.91Z" style="fill:#fff"></path><path d="M60.53,280.91a1.74,1.74,0,1,0,1.73-1.73A1.74,1.74,0,0,0,60.53,280.91Z" style="fill:#fff"></path><rect x="89.12" y="268.79" width="1" height="13.85" transform="translate(179.23 551.43) rotate(180)" style="fill:#c7c7c7"></rect><rect x="57.84" y="240.44" width="89.58" height="20.69" transform="translate(205.27 501.56) rotate(180)" style="fill:#dbdbdb"></rect><rect x="92.66" y="243.85" width="50.99" height="1.75" transform="translate(236.31 489.45) rotate(180)" style="fill:#ebebeb"></rect><rect x="92.66" y="246.88" width="50.99" height="1.75" transform="translate(236.31 495.51) rotate(180)" style="fill:#ebebeb"></rect><rect x="92.66" y="249.91" width="50.99" height="1.75" transform="translate(236.31 501.56) rotate(180)" style="fill:#ebebeb"></rect><rect x="92.66" y="252.93" width="50.99" height="1.75" transform="translate(236.31 507.61) rotate(180)" style="fill:#ebebeb"></rect><rect x="92.66" y="255.96" width="50.99" height="1.75" transform="translate(236.31 513.67) rotate(180)" style="fill:#ebebeb"></rect><circle cx="85.1" cy="245.59" r="1.73" style="fill:#fff"></circle><circle cx="79.39" cy="245.59" r="1.73" style="fill:#fff"></circle><path d="M72,245.59a1.73,1.73,0,1,0,1.73-1.74A1.74,1.74,0,0,0,72,245.59Z" style="fill:#fff"></path><path d="M66.24,245.59A1.73,1.73,0,1,0,68,243.85,1.74,1.74,0,0,0,66.24,245.59Z" style="fill:#fff"></path><path d="M60.53,245.59a1.74,1.74,0,1,0,1.73-1.74A1.74,1.74,0,0,0,60.53,245.59Z" style="fill:#fff"></path><path d="M83.37,250.78a1.73,1.73,0,1,0,1.73-1.73A1.72,1.72,0,0,0,83.37,250.78Z" style="fill:#fff"></path><path d="M77.66,250.78a1.73,1.73,0,1,0,1.73-1.73A1.72,1.72,0,0,0,77.66,250.78Z" style="fill:#fff"></path><path d="M72,250.78a1.73,1.73,0,1,0,1.73-1.73A1.73,1.73,0,0,0,72,250.78Z" style="fill:#fff"></path><path d="M66.24,250.78A1.73,1.73,0,1,0,68,249.05,1.73,1.73,0,0,0,66.24,250.78Z" style="fill:#fff"></path><path d="M60.53,250.78a1.74,1.74,0,1,0,1.73-1.73A1.73,1.73,0,0,0,60.53,250.78Z" style="fill:#fff"></path><path d="M83.37,256a1.73,1.73,0,1,0,1.73-1.74A1.73,1.73,0,0,0,83.37,256Z" style="fill:#fff"></path><path d="M77.66,256a1.73,1.73,0,1,0,1.73-1.74A1.73,1.73,0,0,0,77.66,256Z" style="fill:#fff"></path><path d="M72,256a1.73,1.73,0,1,0,1.73-1.74A1.74,1.74,0,0,0,72,256Z" style="fill:#fff"></path><path d="M66.24,256A1.73,1.73,0,1,0,68,254.24,1.74,1.74,0,0,0,66.24,256Z" style="fill:#fff"></path><path d="M60.53,256a1.74,1.74,0,1,0,1.73-1.74A1.74,1.74,0,0,0,60.53,256Z" style="fill:#fff"></path><rect x="89.12" y="243.85" width="1" height="13.85" transform="translate(179.23 501.56) rotate(180)" style="fill:#c7c7c7"></rect><rect x="57.84" y="215.5" width="89.58" height="20.69" transform="translate(205.27 451.69) rotate(180)" style="fill:#dbdbdb"></rect><rect x="92.66" y="218.92" width="50.99" height="1.75" transform="translate(236.31 439.59) rotate(180)" style="fill:#ebebeb"></rect><rect x="92.66" y="221.95" width="50.99" height="1.75" transform="translate(236.31 445.64) rotate(180)" style="fill:#ebebeb"></rect><rect x="92.66" y="224.97" width="50.99" height="1.75" transform="translate(236.31 451.69) rotate(180)" style="fill:#ebebeb"></rect><rect x="92.66" y="228" width="50.99" height="1.75" transform="translate(236.31 457.75) rotate(180)" style="fill:#ebebeb"></rect><rect x="92.66" y="231.03" width="50.99" height="1.75" transform="translate(236.31 463.8) rotate(180)" style="fill:#ebebeb"></rect><path d="M83.37,220.65a1.73,1.73,0,1,0,1.73-1.73A1.72,1.72,0,0,0,83.37,220.65Z" style="fill:#fff"></path><path d="M77.66,220.65a1.73,1.73,0,1,0,1.73-1.73A1.72,1.72,0,0,0,77.66,220.65Z" style="fill:#fff"></path><path d="M72,220.65a1.73,1.73,0,1,0,1.73-1.73A1.73,1.73,0,0,0,72,220.65Z" style="fill:#fff"></path><path d="M66.24,220.65A1.73,1.73,0,1,0,68,218.92,1.73,1.73,0,0,0,66.24,220.65Z" style="fill:#fff"></path><path d="M60.53,220.65a1.74,1.74,0,1,0,1.73-1.73A1.73,1.73,0,0,0,60.53,220.65Z" style="fill:#fff"></path><path d="M83.37,225.85a1.73,1.73,0,1,0,1.73-1.73A1.73,1.73,0,0,0,83.37,225.85Z" style="fill:#fff"></path><path d="M77.66,225.85a1.73,1.73,0,1,0,1.73-1.73A1.73,1.73,0,0,0,77.66,225.85Z" style="fill:#fff"></path><path d="M72,225.85a1.73,1.73,0,1,0,1.73-1.73A1.74,1.74,0,0,0,72,225.85Z" style="fill:#fff"></path><path d="M66.24,225.85A1.73,1.73,0,1,0,68,224.12,1.74,1.74,0,0,0,66.24,225.85Z" style="fill:#fff"></path><path d="M60.53,225.85a1.74,1.74,0,1,0,1.73-1.73A1.74,1.74,0,0,0,60.53,225.85Z" style="fill:#fff"></path><path d="M83.37,231a1.73,1.73,0,1,0,1.73-1.73A1.72,1.72,0,0,0,83.37,231Z" style="fill:#fff"></path><path d="M77.66,231a1.73,1.73,0,1,0,1.73-1.73A1.72,1.72,0,0,0,77.66,231Z" style="fill:#fff"></path><path d="M72,231a1.73,1.73,0,1,0,1.73-1.73A1.73,1.73,0,0,0,72,231Z" style="fill:#fff"></path><path d="M66.24,231A1.73,1.73,0,1,0,68,229.31,1.73,1.73,0,0,0,66.24,231Z" style="fill:#fff"></path><path d="M60.53,231a1.74,1.74,0,1,0,1.73-1.73A1.73,1.73,0,0,0,60.53,231Z" style="fill:#fff"></path><rect x="89.12" y="218.92" width="1" height="13.85" transform="translate(179.23 451.69) rotate(180)" style="fill:#c7c7c7"></rect><rect x="72.46" y="195.22" width="118.08" height="6.56" transform="translate(263 397) rotate(180)" style="fill:#dbdbdb"></rect></g><g id="freepik--Cloud--inject-128"><path d="M286,100.61H210.17v-.08A13.81,13.81,0,0,1,211.66,73a13.61,13.61,0,0,1,1.7.11,16.16,16.16,0,0,1,16.07-14.6A15.75,15.75,0,0,1,236.14,60,26.85,26.85,0,0,1,288,68.45,16.14,16.14,0,0,1,286,100.61Zm-74.84-1H286a15.14,15.14,0,0,0,1.42-30.21l-.44,0,0-.44a25.84,25.84,0,0,0-50.08-8.08l-.2.52-.5-.25a14.88,14.88,0,0,0-6.76-1.6,15.15,15.15,0,0,0-15.11,14.2l0,.56-.55-.1a12.8,12.8,0,1,0-3,25.4Z" style="fill:#dbdbdb"></path><rect x="243.2" y="77.36" width="13.6" height="11.67" style="fill:#FF723A"></rect><polygon points="238.53 77.36 261.47 77.36 250 65.92 238.53 77.36" style="fill:#FF723A"></polygon><rect x="316.44" y="88.25" width="2" height="1" style="fill:#263238"></rect><path d="M332,89.25h-3.89v-1H332Zm-6.8,0h-3.88v-1h3.88Z" style="fill:#263238"></path><polygon points="337.45 90.75 336.45 90.75 336.45 89.25 334.95 89.25 334.95 88.25 337.45 88.25 337.45 90.75" style="fill:#263238"></polygon><path d="M337.45,146.19h-1v-4h1Zm0-6.93h-1v-4h1Zm0-6.93h-1v-4h1Zm0-6.93h-1v-4h1Zm0-6.93h-1v-4h1Zm0-6.93h-1v-4h1Zm0-6.93h-1v-4h1Zm0-6.93h-1v-4h1Z" style="fill:#263238"></path><rect x="336.45" y="149.16" width="1" height="2" style="fill:#263238"></rect><path d="M316.54,90.63a1.88,1.88,0,1,1,1.88-1.88A1.88,1.88,0,0,1,316.54,90.63Z" style="fill:#263238"></path><path d="M335.07,151.07a1.88,1.88,0,1,0,1.88-1.88A1.88,1.88,0,0,0,335.07,151.07Z" style="fill:#263238"></path><rect x="181.56" y="88.25" width="2" height="1" style="fill:#263238"></rect><path d="M178.64,89.25h-3.88v-1h3.88Zm-6.79,0H168v-1h3.89Z" style="fill:#263238"></path><polygon points="163.55 90.75 162.55 90.75 162.55 88.25 165.05 88.25 165.05 89.25 163.55 89.25 163.55 90.75" style="fill:#263238"></polygon><path d="M163.55,130.44h-1v-3.78h1Zm0-6.61h-1v-3.78h1Zm0-6.62h-1v-3.78h1Zm0-6.61h-1v-3.78h1Zm0-6.62h-1V100.2h1Zm0-6.61h-1V93.59h1Z" style="fill:#263238"></path><rect x="162.55" y="133.28" width="1" height="2" style="fill:#263238"></rect><circle cx="183.46" cy="88.75" r="1.88" style="fill:#263238"></circle><path d="M161.17,135.18a1.88,1.88,0,1,0,1.88-1.88A1.88,1.88,0,0,0,161.17,135.18Z" style="fill:#263238"></path></g><g id="freepik--Server--inject-128"><rect x="216.93" y="224.15" width="57.9" height="218.33" transform="translate(491.75 666.63) rotate(180)" style="fill:#263238"></rect><rect x="110.37" y="224.15" width="106.56" height="218.33" transform="translate(327.29 666.63) rotate(180)" style="fill:#455a64"></rect><rect x="117.03" y="414.16" width="91.91" height="21.23" transform="translate(325.96 849.55) rotate(180)" style="fill:#37474f"></rect><rect x="152.75" y="417.67" width="52.32" height="1.79" transform="translate(357.82 837.13) rotate(180)" style="fill:#455a64"></rect><rect x="152.75" y="420.77" width="52.32" height="1.79" transform="translate(357.82 843.34) rotate(180)" style="fill:#455a64"></rect><rect x="152.75" y="423.88" width="52.32" height="1.79" transform="translate(357.82 849.55) rotate(180)" style="fill:#455a64"></rect><rect x="152.75" y="426.98" width="52.32" height="1.79" transform="translate(357.82 855.76) rotate(180)" style="fill:#455a64"></rect><rect x="152.75" y="430.09" width="52.32" height="1.79" transform="translate(357.82 861.97) rotate(180)" style="fill:#455a64"></rect><path d="M143.21,419.44a1.78,1.78,0,1,0,1.78-1.77A1.78,1.78,0,0,0,143.21,419.44Z" style="fill:#FF723A"></path><path d="M137.36,419.44a1.78,1.78,0,1,0,1.77-1.77A1.77,1.77,0,0,0,137.36,419.44Z" style="fill:#FF723A"></path><path d="M131.5,419.44a1.78,1.78,0,1,0,1.78-1.77A1.77,1.77,0,0,0,131.5,419.44Z" style="fill:#FF723A"></path><path d="M125.64,419.44a1.78,1.78,0,1,0,1.78-1.77A1.78,1.78,0,0,0,125.64,419.44Z" style="fill:#FF723A"></path><path d="M119.78,419.44a1.78,1.78,0,1,0,1.78-1.77A1.78,1.78,0,0,0,119.78,419.44Z" style="fill:#FF723A"></path><path d="M143.21,424.77A1.78,1.78,0,1,0,145,423,1.78,1.78,0,0,0,143.21,424.77Z" style="fill:#FF723A"></path><path d="M137.36,424.77a1.78,1.78,0,1,0,1.77-1.77A1.77,1.77,0,0,0,137.36,424.77Z" style="fill:#FF723A"></path><path d="M131.5,424.77a1.78,1.78,0,1,0,1.78-1.77A1.77,1.77,0,0,0,131.5,424.77Z" style="fill:#FF723A"></path><path d="M125.64,424.77a1.78,1.78,0,1,0,1.78-1.77A1.78,1.78,0,0,0,125.64,424.77Z" style="fill:#FF723A"></path><path d="M119.78,424.77a1.78,1.78,0,1,0,1.78-1.77A1.78,1.78,0,0,0,119.78,424.77Z" style="fill:#FF723A"></path><path d="M143.21,430.1a1.78,1.78,0,1,0,1.78-1.77A1.78,1.78,0,0,0,143.21,430.1Z" style="fill:#FF723A"></path><path d="M137.36,430.1a1.78,1.78,0,1,0,1.77-1.77A1.77,1.77,0,0,0,137.36,430.1Z" style="fill:#FF723A"></path><path d="M131.5,430.1a1.78,1.78,0,1,0,1.78-1.77A1.77,1.77,0,0,0,131.5,430.1Z" style="fill:#FF723A"></path><path d="M125.64,430.1a1.78,1.78,0,1,0,1.78-1.77A1.78,1.78,0,0,0,125.64,430.1Z" style="fill:#FF723A"></path><path d="M119.78,430.1a1.78,1.78,0,1,0,1.78-1.77A1.78,1.78,0,0,0,119.78,430.1Z" style="fill:#FF723A"></path><rect x="149.11" y="417.67" width="1.02" height="14.21" transform="translate(299.25 849.55) rotate(180)" style="fill:#263238"></rect><rect x="117.03" y="388.58" width="91.91" height="21.23" transform="translate(325.96 798.39) rotate(180)" style="fill:#37474f"></rect><rect x="152.75" y="392.09" width="52.32" height="1.79" transform="translate(357.82 785.96) rotate(180)" style="fill:#455a64"></rect><rect x="152.75" y="395.19" width="52.32" height="1.79" transform="translate(357.82 792.17) rotate(180)" style="fill:#455a64"></rect><rect x="152.75" y="398.3" width="52.32" height="1.79" transform="translate(357.82 798.39) rotate(180)" style="fill:#455a64"></rect><rect x="152.75" y="401.4" width="52.32" height="1.79" transform="translate(357.82 804.6) rotate(180)" style="fill:#455a64"></rect><rect x="152.75" y="404.51" width="52.32" height="1.79" transform="translate(357.82 810.81) rotate(180)" style="fill:#455a64"></rect><path d="M143.21,393.86a1.78,1.78,0,1,0,1.78-1.77A1.78,1.78,0,0,0,143.21,393.86Z" style="fill:#FF723A"></path><path d="M137.36,393.86a1.78,1.78,0,1,0,1.77-1.77A1.78,1.78,0,0,0,137.36,393.86Z" style="fill:#FF723A"></path><path d="M131.5,393.86a1.78,1.78,0,1,0,1.78-1.77A1.78,1.78,0,0,0,131.5,393.86Z" style="fill:#FF723A"></path><path d="M125.64,393.86a1.78,1.78,0,1,0,1.78-1.77A1.78,1.78,0,0,0,125.64,393.86Z" style="fill:#FF723A"></path><path d="M119.78,393.86a1.78,1.78,0,1,0,1.78-1.77A1.78,1.78,0,0,0,119.78,393.86Z" style="fill:#FF723A"></path><path d="M143.21,399.19a1.78,1.78,0,1,0,1.78-1.77A1.78,1.78,0,0,0,143.21,399.19Z" style="fill:#FF723A"></path><path d="M137.36,399.19a1.78,1.78,0,1,0,1.77-1.77A1.78,1.78,0,0,0,137.36,399.19Z" style="fill:#FF723A"></path><path d="M131.5,399.19a1.78,1.78,0,1,0,1.78-1.77A1.78,1.78,0,0,0,131.5,399.19Z" style="fill:#FF723A"></path><path d="M125.64,399.19a1.78,1.78,0,1,0,1.78-1.77A1.78,1.78,0,0,0,125.64,399.19Z" style="fill:#FF723A"></path><path d="M119.78,399.19a1.78,1.78,0,1,0,1.78-1.77A1.78,1.78,0,0,0,119.78,399.19Z" style="fill:#FF723A"></path><path d="M143.21,404.52a1.78,1.78,0,1,0,1.78-1.77A1.78,1.78,0,0,0,143.21,404.52Z" style="fill:#FF723A"></path><path d="M137.36,404.52a1.78,1.78,0,1,0,1.77-1.77A1.78,1.78,0,0,0,137.36,404.52Z" style="fill:#FF723A"></path><path d="M131.5,404.52a1.78,1.78,0,1,0,1.78-1.77A1.78,1.78,0,0,0,131.5,404.52Z" style="fill:#FF723A"></path><path d="M125.64,404.52a1.78,1.78,0,1,0,1.78-1.77A1.78,1.78,0,0,0,125.64,404.52Z" style="fill:#FF723A"></path><path d="M119.78,404.52a1.78,1.78,0,1,0,1.78-1.77A1.78,1.78,0,0,0,119.78,404.52Z" style="fill:#FF723A"></path><rect x="149.11" y="392.09" width="1.02" height="14.21" transform="translate(299.25 798.39) rotate(180)" style="fill:#263238"></rect><rect x="117.03" y="363" width="91.91" height="21.23" transform="translate(325.96 747.22) rotate(180)" style="fill:#37474f"></rect><rect x="152.75" y="366.5" width="52.32" height="1.79" transform="translate(357.82 734.8) rotate(180)" style="fill:#455a64"></rect><rect x="152.75" y="369.61" width="52.32" height="1.79" transform="translate(357.82 741.01) rotate(180)" style="fill:#455a64"></rect><rect x="152.75" y="372.71" width="52.32" height="1.79" transform="translate(357.82 747.22) rotate(180)" style="fill:#455a64"></rect><rect x="152.75" y="375.82" width="52.32" height="1.79" transform="translate(357.82 753.43) rotate(180)" style="fill:#455a64"></rect><rect x="152.75" y="378.93" width="52.32" height="1.79" transform="translate(357.82 759.64) rotate(180)" style="fill:#455a64"></rect><path d="M143.21,368.28A1.78,1.78,0,1,0,145,366.5,1.78,1.78,0,0,0,143.21,368.28Z" style="fill:#FF723A"></path><path d="M137.36,368.28a1.78,1.78,0,1,0,1.77-1.78A1.78,1.78,0,0,0,137.36,368.28Z" style="fill:#FF723A"></path><path d="M131.5,368.28a1.78,1.78,0,1,0,1.78-1.78A1.78,1.78,0,0,0,131.5,368.28Z" style="fill:#FF723A"></path><path d="M125.64,368.28a1.78,1.78,0,1,0,1.78-1.78A1.78,1.78,0,0,0,125.64,368.28Z" style="fill:#FF723A"></path><path d="M119.78,368.28a1.78,1.78,0,1,0,1.78-1.78A1.78,1.78,0,0,0,119.78,368.28Z" style="fill:#FF723A"></path><path d="M143.21,373.61a1.78,1.78,0,1,0,1.78-1.78A1.78,1.78,0,0,0,143.21,373.61Z" style="fill:#FF723A"></path><path d="M137.36,373.61a1.78,1.78,0,1,0,1.77-1.78A1.78,1.78,0,0,0,137.36,373.61Z" style="fill:#FF723A"></path><path d="M131.5,373.61a1.78,1.78,0,1,0,1.78-1.78A1.78,1.78,0,0,0,131.5,373.61Z" style="fill:#FF723A"></path><path d="M125.64,373.61a1.78,1.78,0,1,0,1.78-1.78A1.78,1.78,0,0,0,125.64,373.61Z" style="fill:#FF723A"></path><path d="M119.78,373.61a1.78,1.78,0,1,0,1.78-1.78A1.78,1.78,0,0,0,119.78,373.61Z" style="fill:#FF723A"></path><path d="M143.21,378.94a1.78,1.78,0,1,0,1.78-1.78A1.78,1.78,0,0,0,143.21,378.94Z" style="fill:#FF723A"></path><path d="M137.36,378.94a1.78,1.78,0,1,0,1.77-1.78A1.78,1.78,0,0,0,137.36,378.94Z" style="fill:#FF723A"></path><path d="M131.5,378.94a1.78,1.78,0,1,0,1.78-1.78A1.78,1.78,0,0,0,131.5,378.94Z" style="fill:#FF723A"></path><path d="M125.64,378.94a1.78,1.78,0,1,0,1.78-1.78A1.78,1.78,0,0,0,125.64,378.94Z" style="fill:#FF723A"></path><path d="M119.78,378.94a1.78,1.78,0,1,0,1.78-1.78A1.78,1.78,0,0,0,119.78,378.94Z" style="fill:#FF723A"></path><rect x="149.11" y="366.5" width="1.02" height="14.21" transform="translate(299.25 747.22) rotate(180)" style="fill:#263238"></rect><rect x="117.03" y="337.42" width="91.91" height="21.23" transform="translate(325.96 696.06) rotate(180)" style="fill:#37474f"></rect><rect x="152.75" y="340.92" width="52.32" height="1.79" transform="translate(357.82 683.63) rotate(180)" style="fill:#455a64"></rect><rect x="152.75" y="344.03" width="52.32" height="1.79" transform="translate(357.82 689.85) rotate(180)" style="fill:#455a64"></rect><rect x="152.75" y="347.13" width="52.32" height="1.79" transform="translate(357.82 696.06) rotate(180)" style="fill:#455a64"></rect><rect x="152.75" y="350.24" width="52.32" height="1.79" transform="translate(357.82 702.27) rotate(180)" style="fill:#455a64"></rect><rect x="152.75" y="353.34" width="52.32" height="1.79" transform="translate(357.82 708.48) rotate(180)" style="fill:#455a64"></rect><path d="M143.21,342.7a1.78,1.78,0,1,0,1.78-1.78A1.78,1.78,0,0,0,143.21,342.7Z" style="fill:#FF723A"></path><path d="M137.36,342.7a1.78,1.78,0,1,0,1.77-1.78A1.77,1.77,0,0,0,137.36,342.7Z" style="fill:#FF723A"></path><path d="M131.5,342.7a1.78,1.78,0,1,0,1.78-1.78A1.77,1.77,0,0,0,131.5,342.7Z" style="fill:#FF723A"></path><path d="M125.64,342.7a1.78,1.78,0,1,0,1.78-1.78A1.78,1.78,0,0,0,125.64,342.7Z" style="fill:#FF723A"></path><path d="M119.78,342.7a1.78,1.78,0,1,0,1.78-1.78A1.78,1.78,0,0,0,119.78,342.7Z" style="fill:#FF723A"></path><path d="M143.21,348a1.78,1.78,0,1,0,1.78-1.78A1.78,1.78,0,0,0,143.21,348Z" style="fill:#FF723A"></path><path d="M137.36,348a1.78,1.78,0,1,0,1.77-1.78A1.78,1.78,0,0,0,137.36,348Z" style="fill:#FF723A"></path><path d="M131.5,348a1.78,1.78,0,1,0,1.78-1.78A1.78,1.78,0,0,0,131.5,348Z" style="fill:#FF723A"></path><path d="M125.64,348a1.78,1.78,0,1,0,1.78-1.78A1.78,1.78,0,0,0,125.64,348Z" style="fill:#FF723A"></path><path d="M119.78,348a1.78,1.78,0,1,0,1.78-1.78A1.78,1.78,0,0,0,119.78,348Z" style="fill:#FF723A"></path><path d="M143.21,353.36a1.78,1.78,0,1,0,1.78-1.78A1.78,1.78,0,0,0,143.21,353.36Z" style="fill:#FF723A"></path><path d="M137.36,353.36a1.78,1.78,0,1,0,1.77-1.78A1.78,1.78,0,0,0,137.36,353.36Z" style="fill:#FF723A"></path><path d="M131.5,353.36a1.78,1.78,0,1,0,1.78-1.78A1.78,1.78,0,0,0,131.5,353.36Z" style="fill:#FF723A"></path><path d="M125.64,353.36a1.78,1.78,0,1,0,1.78-1.78A1.78,1.78,0,0,0,125.64,353.36Z" style="fill:#FF723A"></path><path d="M119.78,353.36a1.78,1.78,0,1,0,1.78-1.78A1.78,1.78,0,0,0,119.78,353.36Z" style="fill:#FF723A"></path><rect x="149.11" y="340.92" width="1.02" height="14.21" transform="translate(299.25 696.06) rotate(180)" style="fill:#263238"></rect><rect x="117.03" y="311.83" width="91.91" height="21.23" transform="translate(325.96 644.89) rotate(180)" style="fill:#37474f"></rect><rect x="152.75" y="315.34" width="52.32" height="1.79" transform="translate(357.82 632.47) rotate(180)" style="fill:#455a64"></rect><rect x="152.75" y="318.44" width="52.32" height="1.79" transform="translate(357.82 638.68) rotate(180)" style="fill:#455a64"></rect><rect x="152.75" y="321.55" width="52.32" height="1.79" transform="translate(357.82 644.89) rotate(180)" style="fill:#455a64"></rect><rect x="152.75" y="324.66" width="52.32" height="1.79" transform="translate(357.82 651.1) rotate(180)" style="fill:#455a64"></rect><rect x="152.75" y="327.76" width="52.32" height="1.79" transform="translate(357.82 657.31) rotate(180)" style="fill:#455a64"></rect><path d="M143.21,317.12a1.78,1.78,0,1,0,1.78-1.78A1.78,1.78,0,0,0,143.21,317.12Z" style="fill:#FF723A"></path><path d="M137.36,317.12a1.78,1.78,0,1,0,1.77-1.78A1.77,1.77,0,0,0,137.36,317.12Z" style="fill:#FF723A"></path><path d="M131.5,317.12a1.78,1.78,0,1,0,1.78-1.78A1.77,1.77,0,0,0,131.5,317.12Z" style="fill:#FF723A"></path><path d="M125.64,317.12a1.78,1.78,0,1,0,1.78-1.78A1.78,1.78,0,0,0,125.64,317.12Z" style="fill:#FF723A"></path><path d="M119.78,317.12a1.78,1.78,0,1,0,1.78-1.78A1.78,1.78,0,0,0,119.78,317.12Z" style="fill:#FF723A"></path><path d="M143.21,322.45a1.78,1.78,0,1,0,1.78-1.78A1.78,1.78,0,0,0,143.21,322.45Z" style="fill:#FF723A"></path><path d="M137.36,322.45a1.78,1.78,0,1,0,1.77-1.78A1.77,1.77,0,0,0,137.36,322.45Z" style="fill:#FF723A"></path><path d="M131.5,322.45a1.78,1.78,0,1,0,1.78-1.78A1.77,1.77,0,0,0,131.5,322.45Z" style="fill:#FF723A"></path><path d="M125.64,322.45a1.78,1.78,0,1,0,1.78-1.78A1.78,1.78,0,0,0,125.64,322.45Z" style="fill:#FF723A"></path><path d="M119.78,322.45a1.78,1.78,0,1,0,1.78-1.78A1.78,1.78,0,0,0,119.78,322.45Z" style="fill:#FF723A"></path><path d="M143.21,327.78A1.78,1.78,0,1,0,145,326,1.78,1.78,0,0,0,143.21,327.78Z" style="fill:#FF723A"></path><path d="M137.36,327.78a1.78,1.78,0,1,0,1.77-1.78A1.77,1.77,0,0,0,137.36,327.78Z" style="fill:#FF723A"></path><path d="M131.5,327.78a1.78,1.78,0,1,0,1.78-1.78A1.77,1.77,0,0,0,131.5,327.78Z" style="fill:#FF723A"></path><path d="M125.64,327.78a1.78,1.78,0,1,0,1.78-1.78A1.78,1.78,0,0,0,125.64,327.78Z" style="fill:#FF723A"></path><path d="M119.78,327.78a1.78,1.78,0,1,0,1.78-1.78A1.78,1.78,0,0,0,119.78,327.78Z" style="fill:#FF723A"></path><rect x="149.11" y="315.34" width="1.02" height="14.21" transform="translate(299.25 644.89) rotate(180)" style="fill:#263238"></rect><rect x="117.03" y="286.25" width="91.91" height="21.23" transform="translate(325.96 593.73) rotate(180)" style="fill:#37474f"></rect><rect x="152.75" y="289.76" width="52.32" height="1.79" transform="translate(357.82 581.31) rotate(180)" style="fill:#455a64"></rect><rect x="152.75" y="292.86" width="52.32" height="1.79" transform="translate(357.82 587.52) rotate(180)" style="fill:#455a64"></rect><rect x="152.75" y="295.97" width="52.32" height="1.79" transform="translate(357.82 593.73) rotate(180)" style="fill:#455a64"></rect><rect x="152.75" y="299.07" width="52.32" height="1.79" transform="translate(357.82 599.94) rotate(180)" style="fill:#455a64"></rect><rect x="152.75" y="302.18" width="52.32" height="1.79" transform="translate(357.82 606.15) rotate(180)" style="fill:#455a64"></rect><path d="M143.21,291.53a1.78,1.78,0,1,0,1.78-1.77A1.78,1.78,0,0,0,143.21,291.53Z" style="fill:#FF723A"></path><path d="M137.36,291.53a1.78,1.78,0,1,0,1.77-1.77A1.77,1.77,0,0,0,137.36,291.53Z" style="fill:#FF723A"></path><path d="M131.5,291.53a1.78,1.78,0,1,0,1.78-1.77A1.77,1.77,0,0,0,131.5,291.53Z" style="fill:#FF723A"></path><path d="M125.64,291.53a1.78,1.78,0,1,0,1.78-1.77A1.78,1.78,0,0,0,125.64,291.53Z" style="fill:#FF723A"></path><path d="M119.78,291.53a1.78,1.78,0,1,0,1.78-1.77A1.78,1.78,0,0,0,119.78,291.53Z" style="fill:#FF723A"></path><path d="M143.21,296.86a1.78,1.78,0,1,0,1.78-1.77A1.78,1.78,0,0,0,143.21,296.86Z" style="fill:#FF723A"></path><path d="M137.36,296.86a1.78,1.78,0,1,0,1.77-1.77A1.77,1.77,0,0,0,137.36,296.86Z" style="fill:#FF723A"></path><path d="M131.5,296.86a1.78,1.78,0,1,0,1.78-1.77A1.77,1.77,0,0,0,131.5,296.86Z" style="fill:#FF723A"></path><path d="M125.64,296.86a1.78,1.78,0,1,0,1.78-1.77A1.78,1.78,0,0,0,125.64,296.86Z" style="fill:#FF723A"></path><path d="M119.78,296.86a1.78,1.78,0,1,0,1.78-1.77A1.78,1.78,0,0,0,119.78,296.86Z" style="fill:#FF723A"></path><path d="M143.21,302.19a1.78,1.78,0,1,0,1.78-1.77A1.78,1.78,0,0,0,143.21,302.19Z" style="fill:#FF723A"></path><path d="M137.36,302.19a1.78,1.78,0,1,0,1.77-1.77A1.77,1.77,0,0,0,137.36,302.19Z" style="fill:#FF723A"></path><path d="M131.5,302.19a1.78,1.78,0,1,0,1.78-1.77A1.77,1.77,0,0,0,131.5,302.19Z" style="fill:#FF723A"></path><path d="M125.64,302.19a1.78,1.78,0,1,0,1.78-1.77A1.78,1.78,0,0,0,125.64,302.19Z" style="fill:#FF723A"></path><path d="M119.78,302.19a1.78,1.78,0,1,0,1.78-1.77A1.78,1.78,0,0,0,119.78,302.19Z" style="fill:#FF723A"></path><rect x="149.11" y="289.76" width="1.02" height="14.21" transform="translate(299.25 593.73) rotate(180)" style="fill:#263238"></rect><rect x="117.03" y="260.67" width="91.91" height="21.23" transform="translate(325.96 542.56) rotate(180)" style="fill:#37474f"></rect><rect x="152.75" y="264.17" width="52.32" height="1.79" transform="translate(357.82 530.14) rotate(180)" style="fill:#455a64"></rect><rect x="152.75" y="267.28" width="52.32" height="1.79" transform="translate(357.82 536.35) rotate(180)" style="fill:#455a64"></rect><rect x="152.75" y="270.39" width="52.32" height="1.79" transform="translate(357.82 542.56) rotate(180)" style="fill:#455a64"></rect><rect x="152.75" y="273.49" width="52.32" height="1.79" transform="translate(357.82 548.78) rotate(180)" style="fill:#455a64"></rect><rect x="152.75" y="276.6" width="52.32" height="1.79" transform="translate(357.82 554.99) rotate(180)" style="fill:#455a64"></rect><path d="M143.21,266a1.78,1.78,0,1,0,1.78-1.78A1.78,1.78,0,0,0,143.21,266Z" style="fill:#FF723A"></path><path d="M137.36,266a1.78,1.78,0,1,0,1.77-1.78A1.78,1.78,0,0,0,137.36,266Z" style="fill:#FF723A"></path><path d="M131.5,266a1.78,1.78,0,1,0,1.78-1.78A1.78,1.78,0,0,0,131.5,266Z" style="fill:#FF723A"></path><path d="M125.64,266a1.78,1.78,0,1,0,1.78-1.78A1.78,1.78,0,0,0,125.64,266Z" style="fill:#FF723A"></path><path d="M119.78,266a1.78,1.78,0,1,0,1.78-1.78A1.78,1.78,0,0,0,119.78,266Z" style="fill:#FF723A"></path><path d="M143.21,271.28a1.78,1.78,0,1,0,1.78-1.77A1.78,1.78,0,0,0,143.21,271.28Z" style="fill:#FF723A"></path><path d="M137.36,271.28a1.78,1.78,0,1,0,1.77-1.77A1.78,1.78,0,0,0,137.36,271.28Z" style="fill:#FF723A"></path><path d="M131.5,271.28a1.78,1.78,0,1,0,1.78-1.77A1.78,1.78,0,0,0,131.5,271.28Z" style="fill:#FF723A"></path><path d="M125.64,271.28a1.78,1.78,0,1,0,1.78-1.77A1.78,1.78,0,0,0,125.64,271.28Z" style="fill:#FF723A"></path><path d="M119.78,271.28a1.78,1.78,0,1,0,1.78-1.77A1.78,1.78,0,0,0,119.78,271.28Z" style="fill:#FF723A"></path><path d="M143.21,276.61a1.78,1.78,0,1,0,1.78-1.77A1.78,1.78,0,0,0,143.21,276.61Z" style="fill:#FF723A"></path><path d="M137.36,276.61a1.78,1.78,0,1,0,1.77-1.77A1.78,1.78,0,0,0,137.36,276.61Z" style="fill:#FF723A"></path><path d="M131.5,276.61a1.78,1.78,0,1,0,1.78-1.77A1.78,1.78,0,0,0,131.5,276.61Z" style="fill:#FF723A"></path><path d="M125.64,276.61a1.78,1.78,0,1,0,1.78-1.77A1.78,1.78,0,0,0,125.64,276.61Z" style="fill:#FF723A"></path><path d="M119.78,276.61a1.78,1.78,0,1,0,1.78-1.77A1.78,1.78,0,0,0,119.78,276.61Z" style="fill:#FF723A"></path><rect x="149.11" y="264.17" width="1.02" height="14.21" transform="translate(299.25 542.56) rotate(180)" style="fill:#263238"></rect><rect x="117.03" y="235.09" width="91.91" height="21.23" transform="translate(325.96 491.4) rotate(180)" style="fill:#37474f"></rect><rect x="152.75" y="238.59" width="52.32" height="1.79" transform="translate(357.82 478.98) rotate(180)" style="fill:#455a64"></rect><rect x="152.75" y="241.7" width="52.32" height="1.79" transform="translate(357.82 485.19) rotate(180)" style="fill:#455a64"></rect><rect x="152.75" y="244.8" width="52.32" height="1.79" transform="translate(357.82 491.4) rotate(180)" style="fill:#455a64"></rect><rect x="152.75" y="247.91" width="52.32" height="1.79" transform="translate(357.82 497.61) rotate(180)" style="fill:#455a64"></rect><rect x="152.75" y="251.02" width="52.32" height="1.79" transform="translate(357.82 503.82) rotate(180)" style="fill:#455a64"></rect><path d="M143.21,240.37a1.78,1.78,0,1,0,1.78-1.78A1.78,1.78,0,0,0,143.21,240.37Z" style="fill:#FF723A"></path><path d="M137.36,240.37a1.78,1.78,0,1,0,1.77-1.78A1.78,1.78,0,0,0,137.36,240.37Z" style="fill:#FF723A"></path><path d="M131.5,240.37a1.78,1.78,0,1,0,1.78-1.78A1.78,1.78,0,0,0,131.5,240.37Z" style="fill:#FF723A"></path><path d="M125.64,240.37a1.78,1.78,0,1,0,1.78-1.78A1.78,1.78,0,0,0,125.64,240.37Z" style="fill:#FF723A"></path><path d="M119.78,240.37a1.78,1.78,0,1,0,1.78-1.78A1.78,1.78,0,0,0,119.78,240.37Z" style="fill:#FF723A"></path><path d="M143.21,245.7a1.78,1.78,0,1,0,1.78-1.78A1.78,1.78,0,0,0,143.21,245.7Z" style="fill:#FF723A"></path><path d="M137.36,245.7a1.78,1.78,0,1,0,1.77-1.78A1.78,1.78,0,0,0,137.36,245.7Z" style="fill:#FF723A"></path><path d="M131.5,245.7a1.78,1.78,0,1,0,1.78-1.78A1.78,1.78,0,0,0,131.5,245.7Z" style="fill:#FF723A"></path><path d="M125.64,245.7a1.78,1.78,0,1,0,1.78-1.78A1.78,1.78,0,0,0,125.64,245.7Z" style="fill:#FF723A"></path><path d="M119.78,245.7a1.78,1.78,0,1,0,1.78-1.78A1.78,1.78,0,0,0,119.78,245.7Z" style="fill:#FF723A"></path><path d="M143.21,251a1.78,1.78,0,1,0,1.78-1.78A1.78,1.78,0,0,0,143.21,251Z" style="fill:#FF723A"></path><path d="M137.36,251a1.78,1.78,0,1,0,1.77-1.78A1.78,1.78,0,0,0,137.36,251Z" style="fill:#FF723A"></path><path d="M131.5,251a1.78,1.78,0,1,0,1.78-1.78A1.78,1.78,0,0,0,131.5,251Z" style="fill:#FF723A"></path><path d="M125.64,251a1.78,1.78,0,1,0,1.78-1.78A1.78,1.78,0,0,0,125.64,251Z" style="fill:#FF723A"></path><path d="M119.78,251a1.78,1.78,0,1,0,1.78-1.78A1.78,1.78,0,0,0,119.78,251Z" style="fill:#FF723A"></path><rect x="149.11" y="238.59" width="1.02" height="14.21" transform="translate(299.25 491.4) rotate(180)" style="fill:#263238"></rect><rect x="132.02" y="217.42" width="121.15" height="6.73" transform="translate(385.19 441.57) rotate(180)" style="fill:#37474f"></rect></g><g id="freepik--Floor--inject-128"><polygon points="40.78 442.48 93.09 442.24 145.39 442.15 250 441.98 354.61 442.15 406.91 442.23 459.21 442.48 406.91 442.72 354.61 442.81 250 442.98 145.39 442.81 93.09 442.72 40.78 442.48" style="fill:#263238"></polygon></g><g id="freepik--Character--inject-128"><path d="M275.37,342.79,245.47,367c-5.73,4.58-10.68,8.71-13,11.08l0,0c-.89.89-1.41,1.53-1.43,1.84,0,0,0,0,0,.06.2,2.64,35.53,49.56,37.31,50.78s5.41-3.76,5.49-6.68-5.41-26.93-5.41-26.93L298,372.72Z" style="fill:#ad6359"></path><path d="M251.61,362l-6.14,5c-5.73,4.58-10.68,8.71-13,11.08l0,0a9.51,9.51,0,0,0-1.43,1.84s0,0,0,.06c.2,2.64,35.53,49.56,37.31,50.78s5.41-3.76,5.49-6.68-5.41-26.93-5.41-26.93l6.29-4.95Z" style="fill:#ebebeb"></path><path d="M268.26,430.75c-1.78-1.22-37.11-48.14-37.31-50.78-.1-1,6.44-6.55,14.53-13l.25-.2,23.13,30-.53.38s5.49,24,5.42,26.93S270,432,268.26,430.75Z" style="fill:#a6a6a6"></path><path d="M269.68,428.85c-5.76-8.05-29.75-40-36.06-47.53-.05-.06-.09,0-.05,0,5.54,8.11,29.79,39.86,36,47.59C269.68,429.11,269.8,429,269.68,428.85Z" style="fill:#263238"></path><path d="M270.16,399.75c-1.76-3.55-5.11-7-9.11-7.7-.16,0-.2.19-.09.27a54.72,54.72,0,0,1,8.8,7.72A.25.25,0,0,0,270.16,399.75Z" style="fill:#263238"></path><path d="M270.5,403c-1.77-3.55-5.11-7-9.12-7.71-.15,0-.19.2-.08.27a54.22,54.22,0,0,1,8.79,7.72A.25.25,0,0,0,270.5,403Z" style="fill:#263238"></path><path d="M270.83,406.28c-1.76-3.55-5.1-7-9.11-7.7-.16,0-.19.19-.08.27a55.08,55.08,0,0,1,8.79,7.72A.25.25,0,0,0,270.83,406.28Z" style="fill:#263238"></path><path d="M291.53,314C289.42,324.47,246,366.18,246,366.18l30.24,34.9s61.58-61.47,58.36-84.56c-2.79-20.09-32.87-100.88-32.87-100.88h-34.7S293.61,303.73,291.53,314Z" style="fill:#37474f"></path><path d="M291.53,314C289.42,324.47,246,366.18,246,366.18l30.24,34.9s61.58-61.47,58.36-84.56c-2.79-20.09-32.87-100.88-32.87-100.88h-34.7S293.61,303.73,291.53,314Z" style="fill:#37474f"></path><path d="M279.72,392.78c-4-5-2.79-3.62-6.87-8.58-2-2.42-15.1-18.35-17.36-20.28-.05-.05-.13,0-.1.08,1.51,2.56,14.9,18.25,16.94,20.64,4.17,4.88,3,3.43,7.25,8.26A.09.09,0,1,0,279.72,392.78Z" style="fill:#263238"></path><path d="M295.84,308.92c-.5-2.61-1.06-5.21-1.61-7.81q-1.69-8-3.58-15.88-3.75-15.71-8.16-31.22c-2.95-10.39-6.08-20.76-9.68-30.94-.45-1.26-.91-2.51-1.37-3.76a.08.08,0,1,0-.15,0c3.12,10.2,6.34,20.37,9.26,30.63s5.61,20.49,8.15,30.81c1.27,5.17,2.46,10.37,3.62,15.58q.85,3.84,1.67,7.68a54.86,54.86,0,0,1,1.45,7.92,12.07,12.07,0,0,1-2,7.13c-1.31,2.13-2.84,4.13-4.32,6.14-3,4-31.2,35.49-32.11,36.35-.07.06,0,.17.11.1,3.79-3.4,27.75-29.34,30.79-33.36,1.51-2,3-4,4.42-6a23.53,23.53,0,0,0,3.44-6.07A14.37,14.37,0,0,0,295.84,308.92Z" style="fill:#263238"></path><path d="M295.77,215.63l-6.3,82.68c-6-28.3-22.39-82.68-22.39-82.68Z" style="fill:#263238"></path><path d="M280.89,385.86s7.49,36.48,7.49,36.5c.1,7.35.32,13.79.74,17.11a.09.09,0,0,0,0,0,5.12,5.12,0,0,0,.57,2.26l.05.05c2.2,1.45,60.93,2.36,63,1.7s.34-6.57-1.91-8.43-24.59-12.26-24.59-12.26l-7.85-36.45Z" style="fill:#ad6359"></path><path d="M352.74,443.53c-2.06.66-60.79-.25-63-1.7l-.05-.05a5.07,5.07,0,0,1-.57-2.26.13.13,0,0,1,0-.06c-.43-3.31-.64-9.75-.75-17.09L287.08,416h37.69l1.47,6.82s22.33,10.41,24.6,12.26S354.81,442.88,352.74,443.53Z" style="fill:#ebebeb"></path><path d="M352.74,443.53c-2.06.66-60.79-.25-63-1.7-.85-.54-1.21-9.11-1.36-19.47V422l37.89.16,0,.65s22.32,10.4,24.58,12.26S354.8,442.88,352.74,443.53Z" style="fill:#a6a6a6"></path><path d="M352.11,441.25c-9.9-.4-49.84-1.07-59.65-.71-.08,0-.08.06,0,.07,9.8.6,49.75.95,59.66.8C352.32,441.41,352.32,441.26,352.11,441.25Z" style="fill:#263238"></path><path d="M329.43,423c-3.89-.79-8.66-.26-11.68,2.47-.12.1,0,.27.16.23a54.78,54.78,0,0,1,11.49-2.21A.25.25,0,0,0,329.43,423Z" style="fill:#263238"></path><path d="M332.21,424.75c-3.88-.79-8.65-.26-11.67,2.46-.12.11,0,.27.16.24a54,54,0,0,1,11.49-2.21A.25.25,0,0,0,332.21,424.75Z" style="fill:#263238"></path><path d="M335,426.49c-3.89-.79-8.66-.27-11.68,2.46-.12.11,0,.27.16.23A54.85,54.85,0,0,1,335,427,.25.25,0,0,0,335,426.49Z" style="fill:#263238"></path><path d="M298.42,215.64a143.29,143.29,0,0,0-3,17.31c-.72,7.26-1.63,13.69-2.59,14.49s-6.58,4.42-8.43,5.55c0,0,17.1,51.83,21.51,69.11,6.39,25,21.72,100.19,21.72,100.19H286.83S274.41,350.74,269,326.9c-4.65-20.44-22.47-81.77-22.47-81.77A35.57,35.57,0,0,1,248,215.64S298.43,215.61,298.42,215.64Z" style="fill:#37474f"></path><path d="M326.17,414.34c-6.41,0-4.57-.11-11-.07-3.14,0-23.77.16-26.69.69-.07,0-.06.12,0,.13,2.94.44,23.56-.06,26.7-.14,6.42-.16,4.57-.19,11-.42A.1.1,0,0,0,326.17,414.34Z" style="fill:#263238"></path><path d="M295.74,245.39a77.32,77.32,0,0,0-11.26,7.54.14.14,0,1,0,.15.23c3.81-2.39,7.72-4.72,11.4-7.32A.27.27,0,0,0,295.74,245.39Z" style="fill:#263238"></path><path d="M292.62,217.19c0-.14-.29-.13-.26,0A135.55,135.55,0,0,1,293.79,231c.14,2.14.25,14-3.53,13.76-.63-.05-1-.6-1.28-1.51a14.75,14.75,0,0,1-.07-3.64c0-2.5,0-5-.2-7.49a67.28,67.28,0,0,0-2.28-13.75.12.12,0,0,0-.24.05A127.22,127.22,0,0,1,288,237.58c0,3.1-.8,7.89,2.44,7.87s4.2-8,4.27-10.14A70.6,70.6,0,0,0,292.62,217.19Z" style="fill:#263238"></path><path d="M290.41,245a19.56,19.56,0,0,0-.45,2.54,5.55,5.55,0,0,0,0,2c0,.13.21.11.27,0a7.21,7.21,0,0,0,.55-2.06c.16-.79.34-1.58.48-2.37A.41.41,0,0,0,290.41,245Z" style="fill:#263238"></path><path d="M252.3,244.83a39.93,39.93,0,0,0,10.35-2,24.52,24.52,0,0,0,10-6.19,19.87,19.87,0,0,0,3.84-5.38c0-.08.16,0,.13.06a17.89,17.89,0,0,1-2.72,5.39,21,21,0,0,1-4.41,4.21,23.25,23.25,0,0,1-11.23,4.34,18,18,0,0,1-6-.1C252,245.18,252.11,244.85,252.3,244.83Z" style="fill:#263238"></path><path d="M282.08,391.85c-.11-.94-.24-1.88-.37-2.83-.26-1.8-.56-3.61-.84-5.41-.56-3.63-1.18-7.25-1.82-10.86-1.28-7.21-2.76-14.39-4.32-21.55-.88-4-1.91-8-3-12-.07-.28-.46-.14-.42.13.66,3.65,1.29,7.31,2,10.95s1.49,7.26,2.21,10.89c1.43,7.18,2.76,14.38,4.18,21.56.4,2,.76,4.06,1.16,6.09.19,1,.4,2,.62,3s.53,2,.69,3c0,.09.16.05.15,0C282.21,393.82,282.19,392.83,282.08,391.85Z" style="fill:#263238"></path><path d="M310.23,337.62c-1.36-6.77-3.2-13.46-5-20.11-3.71-13.4-8.08-26.6-12.43-39.79q-1.89-5.7-3.77-11.41c-.63-1.9-3.7-12.15-4.09-13.12a.08.08,0,1,0-.15.05c.88,3.49,2.09,8.58,3.11,12s2.1,6.81,3.16,10.21c2.09,6.68,4.21,13.36,6.23,20.06,4,13.24,8,26.48,11.23,39.94.91,3.77,1.81,7.53,2.64,11.32s1.54,7.58,2.33,11.37c0,.1.2.08.19,0C313,351.24,311.59,344.41,310.23,337.62Z" style="fill:#263238"></path><path d="M284.85,373.05c-2.25-12.92-4.94-25.77-7.92-38.54s-6.33-25.59-10-38.25-7.75-25.19-12.12-37.62a155.64,155.64,0,0,1-5.55-17.9c-1.34-6-2-12.57-.62-18.65a32.59,32.59,0,0,1,1.39-4.54c0-.1-.1-.19-.15-.08-4.91,11.44-1.72,23.95,2,35.23,2,6.17,4.23,12.31,6.25,18.49q3.11,9.54,6,19.14,5.65,19.05,10.4,38.33t8.37,38.82c2.47,13.06,4.54,26.17,6.64,39.28.27,1.71.49,3.42.71,5.14,0,.09.17.09.15,0C288.8,398.9,287.09,386,284.85,373.05Z" style="fill:#263238"></path><path d="M284,161.44c4.8,17.55,18.64,38.73,25.21,41.65,5.73,2.54,32.3-7.29,42.33-13.67,2.86-1.82-8.94-18.25-12.38-17.1-11.22,3.74-23.43,9.27-24.38,9-1.9-.65-13.82-15.27-22.5-25.09C282.59,145.17,282.11,154.45,284,161.44Z" style="fill:#ad6359"></path><path d="M370.54,174.58c2.25-1,19.65-1.5,19.64-5.27s-22.13-2.72-22.13-2.72Z" style="fill:#ad6359"></path><path d="M337.18,175c3-3.78,5.71-7.85,8.35-8.6,1.83-.52,21.53.33,24.6.15s14.06.09,14.31,2.79c.36,3.81-12.63,3.78-14,5.73-4.79,6.73-23,16.68-23,16.68Z" style="fill:#ad6359"></path><path d="M384.73,169.42a3,3,0,0,0-1.26-1.7c-1.34-.95-3.12-1-4.7-1.15a42.34,42.34,0,0,0-7.21-.06,0,0,0,1,0,0,.08c1.8,0,3.6,0,5.39.2a22.24,22.24,0,0,1,4.88.75,3.94,3.94,0,0,1,1.88,1.12,1.57,1.57,0,0,1,.37,1.45c-.53,1.67-3.8,2.16-5.32,2.5-2,.44-4,.83-6,1.23-.08,0,0,.15,0,.14,2.07-.41,4.24-.57,6.31-.94a10.35,10.35,0,0,0,4.83-1.76A1.92,1.92,0,0,0,384.73,169.42Z" style="fill:#263238"></path><path d="M336.42,172.69,352,195.5s-24.16,12.1-33.37,11.88c-8.8-.21-12-1.5-14.76-4.12-1.71-1.63-11.49-15.44-19.47-38.37-6.69-19.25,3.21-16.41,12-5.76,4.4,5.32,18.48,21.15,19.18,21.09S336.42,172.69,336.42,172.69Z" style="fill:#FF723A"></path><path d="M292.07,169.4a6.07,6.07,0,0,0,0,4.12,6.07,6.07,0,0,0,0-4.12Zm12,23.53a6.07,6.07,0,0,0,0,4.12,5.53,5.53,0,0,0,.36-2.06A5.3,5.3,0,0,0,304.09,192.93ZM337,189.06a6.07,6.07,0,0,0,0,4.12,6.07,6.07,0,0,0,0-4.12Zm3.23-8a5.56,5.56,0,0,0-2.06.36,6.1,6.1,0,0,0,4.13,0A5.38,5.38,0,0,0,340.18,181.08ZM324.91,196a5.53,5.53,0,0,0-2.06.36,6.07,6.07,0,0,0,4.12,0A5.49,5.49,0,0,0,324.91,196Zm1.15-13.79a5.38,5.38,0,0,0-1.71-1.2,5.5,5.5,0,0,0,1.2,1.71,5.38,5.38,0,0,0,1.71,1.2A5.38,5.38,0,0,0,326.06,182.23Zm-33.73-26.56a5.77,5.77,0,0,0-1.72-1.2,6.09,6.09,0,0,0,2.92,2.92A5.77,5.77,0,0,0,292.33,155.67Zm22.81,47.55a5.85,5.85,0,0,0-1.71-1.2,5.43,5.43,0,0,0,1.2,1.72,5.72,5.72,0,0,0,1.71,1.2A5.43,5.43,0,0,0,315.14,203.22Zm-10.56-23.5a5.77,5.77,0,0,0-1.72-1.2,6,6,0,0,0,2.92,2.92A5.77,5.77,0,0,0,304.58,179.72Zm11.14,9.68a5.77,5.77,0,0,0-1.2,1.72,6,6,0,0,0,2.92-2.92A5.77,5.77,0,0,0,315.72,189.4Zm32.22,5.33a5.43,5.43,0,0,0-1.2,1.72,5.72,5.72,0,0,0,1.71-1.2,5.43,5.43,0,0,0,1.2-1.72A5.85,5.85,0,0,0,347.94,194.73Zm-16,7.94a5.62,5.62,0,0,0-1.21,1.72,5.62,5.62,0,0,0,1.72-1.21,5.72,5.72,0,0,0,1.2-1.71A5.59,5.59,0,0,0,332,202.67Z" style="opacity:0.1"></path><path d="M331.63,176.4c2.34,3.38,4.57,6.82,6.78,10.29,1.09,1.69,5.13,8.61,6.3,10.56.05.08-.16.21-.22.14-1.22-1.74-5.62-8.64-6.67-10.35-2.15-3.5-4.28-7-6.29-10.58C331.49,176.4,331.59,176.34,331.63,176.4Z" style="fill:#263238"></path><path d="M323.29,206.8a20,20,0,0,1-4.67.58c-8.78-.2-12-1.5-14.74-4.13-1.72-1.61-11.5-15.42-19.47-38.36-1.54-4.44-2.21-7.69-2.21-9.95q0-.33,0-.63a5.44,5.44,0,0,1,0-.58c0-.17.05-.33.08-.48a3.39,3.39,0,0,1,1-1.88C288.72,158.64,314.28,193.14,323.29,206.8Z" style="opacity:0.1"></path><rect x="321.42" y="163.32" width="59.08" height="3.18" style="fill:#c7c7c7"></rect><polygon points="380.5 163.32 380.5 166.5 344.62 166.5 347.05 163.32 380.5 163.32" style="fill:#a6a6a6"></polygon><polygon points="349.65 166.5 389.16 166.5 409.72 131.58 370.21 131.58 349.65 166.5" style="fill:#c7c7c7"></polygon><path d="M378.21,149c-.73,1.62-.19,3.32,1.22,3.8a3.37,3.37,0,0,0,3.88-2.06c.74-1.61.19-3.31-1.21-3.8A3.37,3.37,0,0,0,378.21,149Z" style="fill:#fff"></path><path d="M244.16,227.66c.15.16,61.86-.29,62.41-.93.78-.9-13.84-67.61-20.26-75.8-1.37-1.76-5.85-2.2-9.64-1.69a17,17,0,0,0-2.92.63l-.1,0a6.89,6.89,0,0,0-2.14,1.07c-10.48,8.55-19.07,38.13-21.06,47C247.16,212.61,243.65,227.08,244.16,227.66Z" style="fill:#FF723A"></path><path d="M289,203.22a5.77,5.77,0,0,0-1.2,1.72,6,6,0,0,0,2.92-2.92A5.77,5.77,0,0,0,289,203.22Zm-15.45-48.37a5.45,5.45,0,0,0-1.21,1.71,5.43,5.43,0,0,0,1.72-1.2,5.77,5.77,0,0,0,1.2-1.72A5.45,5.45,0,0,0,273.56,154.85Zm2.56,70.36a5.57,5.57,0,0,0-1.21,1.71,5.43,5.43,0,0,0,1.72-1.2,5.85,5.85,0,0,0,1.2-1.71A5.27,5.27,0,0,0,276.12,225.21Zm-17.21-27.63a5.43,5.43,0,0,0-1.2,1.72,6.09,6.09,0,0,0,2.92-2.92A5.77,5.77,0,0,0,258.91,197.58Zm2.4,13.19a5.62,5.62,0,0,0-1.72-1.21,5.77,5.77,0,0,0,1.2,1.72,5.43,5.43,0,0,0,1.72,1.2A5.72,5.72,0,0,0,261.31,210.77Zm17-30a5.5,5.5,0,0,0-1.71-1.2,6.05,6.05,0,0,0,2.91,2.91A5.5,5.5,0,0,0,278.33,180.77Zm23.94,45.44a4.58,4.58,0,0,0,.43.79h0l.79,0A4.63,4.63,0,0,0,302.27,226.21Zm1.22-15.9a5.07,5.07,0,0,0-1.82.35,5.44,5.44,0,0,0,2,.36Zm-12.76-22.47a5.49,5.49,0,0,0-2.06.36,5.49,5.49,0,0,0,2.06.36,5.34,5.34,0,0,0,2.06-.36A5.53,5.53,0,0,0,290.73,187.84Zm-42.16,31.08a5.59,5.59,0,0,0-2.07.37,5.79,5.79,0,0,0,2.07.36,5.56,5.56,0,0,0,2.06-.36A5.58,5.58,0,0,0,248.57,218.92ZM263,182.48a5.58,5.58,0,0,0-2.06.37,5.78,5.78,0,0,0,2.06.36,5.58,5.58,0,0,0,2.07-.36A5.59,5.59,0,0,0,263,182.48Zm14.17,27.46a5.56,5.56,0,0,0-2.06.36,6.1,6.1,0,0,0,4.13,0A5.38,5.38,0,0,0,277.13,209.94Zm2.4-43.8a5.53,5.53,0,0,0-2.06.36,5.53,5.53,0,0,0,2.06.36,5.3,5.3,0,0,0,2.06-.36A5.49,5.49,0,0,0,279.53,166.14Zm-14-.3a5.92,5.92,0,0,0,0,4.12,5.74,5.74,0,0,0,.36-2.06A5.49,5.49,0,0,0,265.52,165.84Zm-4.62,61.45a1.5,1.5,0,0,0-.11.34H261A1.5,1.5,0,0,0,260.9,227.29Zm28.73-9.7a5.49,5.49,0,0,0-.36,2.06,5.74,5.74,0,0,0,.36,2.06,5.92,5.92,0,0,0,0-4.12Zm-15.82-23.88a6.1,6.1,0,0,0,0,4.13,5.56,5.56,0,0,0,.36-2.06A5.38,5.38,0,0,0,273.81,193.71Zm18.26-24.31a6.07,6.07,0,0,0,0,4.12,6.07,6.07,0,0,0,0-4.12Z" style="opacity:0.1"></path><path d="M263.82,157.1c-16.06,16.28-36.26,50.52-32.49,57.46,4.19,7.73,26.55-15.09,26.47-16.42-.07-1,7.8-21.81,13.77-36.94S267.79,153.07,263.82,157.1Z" style="fill:#ad6359"></path><path d="M258,198.16c.68-2.22,11.39-29.65,14.45-38.32s.22-11.36-8.52-3.41S236,190.91,231.61,205c-4.21,13.57,2.78,13.57,12,7.32C251.15,207.19,258,198.16,258,198.16Z" style="fill:#FF723A"></path><path d="M265.52,165.84a5.92,5.92,0,0,0,0,4.12,5.74,5.74,0,0,0,.36-2.06A5.49,5.49,0,0,0,265.52,165.84ZM246,203.48a5.51,5.51,0,0,0-.37,2.06,5.75,5.75,0,0,0,.37,2.06,6.07,6.07,0,0,0,0-4.12Zm17-21a5.58,5.58,0,0,0-2.06.37,5.78,5.78,0,0,0,2.06.36,4.73,4.73,0,0,0,.65,0h0q.11-.31.24-.63C263.56,182.5,263.26,182.49,263,182.48Zm-25,14.21a5.49,5.49,0,0,0-2.06.36,5.49,5.49,0,0,0,2.06.36,5.34,5.34,0,0,0,2.06-.36A5.53,5.53,0,0,0,238,196.69Zm10.86-5.83a5.43,5.43,0,0,0-1.71-1.2,5.27,5.27,0,0,0,1.2,1.71,5.62,5.62,0,0,0,1.72,1.21A5.62,5.62,0,0,0,248.82,190.86Zm-12.67,22.08a5.72,5.72,0,0,0-1.71-1.2,5.43,5.43,0,0,0,1.2,1.72,5.85,5.85,0,0,0,1.71,1.2A5.43,5.43,0,0,0,236.15,212.94Zm37.41-58.09a5.45,5.45,0,0,0-1.21,1.71,4.46,4.46,0,0,0,1.1-.66h0a8.49,8.49,0,0,0,.11-1.06Zm-21.42,20a5.59,5.59,0,0,0-1.2,1.71,6,6,0,0,0,2.92-2.92A5.62,5.62,0,0,0,252.14,174.89Z" style="opacity:0.1"></path><path d="M258,198.16c.76-2.43,1.59-4.84,2.44-7.24s1.75-4.78,2.62-7.17,1.84-4.75,2.79-7.11,1.93-4.71,3-7c-.75,2.44-1.59,4.84-2.44,7.25s-1.75,4.78-2.62,7.17-1.83,4.75-2.79,7.11S259,195.84,258,198.16Z" style="fill:#263238"></path><path d="M269.44,171.48a8.56,8.56,0,0,1-1.15,2.35,9.12,9.12,0,0,1-.83,1,5.13,5.13,0,0,1-1,.84c.48-.74.94-1.44,1.43-2.15A22.89,22.89,0,0,1,269.44,171.48Z" style="fill:#263238"></path><path d="M231.33,214.56c3.61,5.17,13.45,6.16,38,11,3.4.67,14.54-22,10.95-22.93-4.52-1.13-22.31-4.54-23.65-4.62C245.38,197.26,228.87,211.05,231.33,214.56Z" style="fill:#ad6359"></path><path d="M275.36,201.47s10.4,1.57,15.61,4.09a37.23,37.23,0,0,1,13.4,11.69c3.75,5.3,9.14,20.7,5,23-3.78,2.11-8.5-13.92-8.5-13.92s7.51,15.55,2.5,17.25-9.42-17.21-9.42-17.21,7.35,16.15,1.91,17.08c-4.11.71-9.08-16.19-9.08-16.19s6.23,13.92,2,14.83c-4.64,1-10.2-14.31-10.2-14.31-11.07.52-16.55-3.76-20.08-7.26C257.65,219.7,275.36,201.47,275.36,201.47Z" style="fill:#ad6359"></path><path d="M298.6,220.82c.95,1.79,1.92,3.6,2.71,5.48s1.5,3.77,2.11,5.71a35.11,35.11,0,0,1,1.65,7.76c-.79-4.66-3.5-11.4-4.28-13.28s-1.48-3.77-2.26-5.64C298.51,220.8,298.58,220.78,298.6,220.82Z" style="fill:#263238"></path><path d="M291.79,223.53c1.11,2.35,2.3,4.63,3.31,7s1.74,4.73,2.58,7.18c.07.19-.06.16-.13,0-.93-2.41-2-4.56-2.94-7s-1.83-4.83-2.88-7.19C291.72,223.52,291.77,223.5,291.79,223.53Z" style="fill:#263238"></path><path d="M285.52,224.81a57.29,57.29,0,0,1,4.24,11.12c.06.19-.1.14-.17-.05-1.33-3.72-2.36-6.66-4.19-11C285.37,224.81,285.48,224.73,285.52,224.81Z" style="fill:#263238"></path><path d="M277.53,201.47,256,225.42s-21.74-5-24.95-10.57C229,211.18,245.34,196.31,257.7,198Z" style="fill:#FF723A"></path><path d="M258.4,198.16a4.5,4.5,0,0,0-.69,1.14,5.26,5.26,0,0,0,1.49-1Zm2.91,12.61a5.62,5.62,0,0,0-1.72-1.21,5.77,5.77,0,0,0,1.2,1.72,5.43,5.43,0,0,0,1.72,1.2A5.72,5.72,0,0,0,261.31,210.77Zm-25.16,2.17a5.72,5.72,0,0,0-1.71-1.2,5.43,5.43,0,0,0,1.2,1.72,5.85,5.85,0,0,0,1.71,1.2A5.43,5.43,0,0,0,236.15,212.94Zm12.42,6a5.59,5.59,0,0,0-2.07.37,5.79,5.79,0,0,0,2.07.36,5.56,5.56,0,0,0,2.06-.36A5.58,5.58,0,0,0,248.57,218.92ZM246,203.48a5.51,5.51,0,0,0-.37,2.06,5.75,5.75,0,0,0,.37,2.06,6.07,6.07,0,0,0,0-4.12Z" style="opacity:0.1"></path><path d="M243,201.94A21.34,21.34,0,0,1,257.72,198c.06,0,.06.11,0,.11C252.32,198,245,200.8,243,202,243,202.06,242.91,202,243,201.94Z" style="fill:#263238"></path><path d="M250.15,221.41c2.22-2.76,4.59-5.4,7-8s4.75-5.28,7.19-7.85c1.38-1.45,2.75-2.92,4.18-4.32a.05.05,0,0,1,.08.06c-2.22,2.75-4.58,5.4-6.93,8s-4.75,5.27-7.17,7.87c-1.36,1.47-2.75,2.92-4.18,4.33C250.22,221.59,250.08,221.49,250.15,221.41Z" style="fill:#263238"></path><path d="M277.57,201.16a29,29,0,0,0-4-.92c-1.36-.25-2.72-.49-4.08-.7-2.71-.44-8.41-1.67-13.41-1.66-.06,0,.23.27.28.27,2.38-.13,19.47,3.27,20.87,3.37a1.51,1.51,0,0,0-.15.28c0,.07,0,.16.11.11a5.71,5.71,0,0,0,.47-.39A.2.2,0,0,0,277.57,201.16Z" style="fill:#263238"></path><path d="M245,222.29c3.78.77,7.42,2,11.1,2.88l-.23.08c.67-.66,1.35-1.3,2.06-1.91-.54.77-1.1,1.51-1.68,2.24l-.08.1-.16,0a33.81,33.81,0,0,1-5.63-1.3A40.33,40.33,0,0,1,245,222.29Z" style="fill:#263238"></path><path d="M283.7,159.38c-2.95.34-8.51-3.75-10.07-8.09-.1-.3.77-3.12,1.68-6.6.54-2.11,1.09-4.47,1.43-6.67.07-.45,13.23,5.52,13.23,5.52a35.44,35.44,0,0,0-2.66,8.22,5.74,5.74,0,0,0-.05.91.74.74,0,0,1,0,.15C287.27,154.58,286.85,159,283.7,159.38Z" style="fill:#ad6359"></path><path d="M287.27,152.67s0,.1,0,.15a9.41,9.41,0,0,1-1.42-.15c-8.07-1.46-8.6-11.93-8.61-14.57,2.39.74,12.75,5.44,12.75,5.44a35.24,35.24,0,0,0-2.67,8.22A4.73,4.73,0,0,0,287.27,152.67Z" style="fill:#263238"></path><path d="M276.89,120.54c-2.11,4.71-1.3,19.19,1.79,22.79,4.47,5.21,12.69,6.69,17.34,1.11,4.51-5.42,3.13-24.28-.4-27.63C290.41,111.86,280,113.58,276.89,120.54Z" style="fill:#ad6359"></path><path d="M287.56,130.79s-.07.05-.07.09c.08,1,0,2.1-.86,2.47a0,0,0,0,0,0,.06C287.72,133.2,287.8,131.7,287.56,130.79Z" style="fill:#263238"></path><path d="M286.64,129.82c-1.58,0-1.54,3.11-.08,3.15S288,129.85,286.64,129.82Z" style="fill:#263238"></path><path d="M293.57,130.75s.08,0,.08.08c0,1,.12,2.1,1,2.41,0,0,0,.06,0,.06C293.57,133.16,293.4,131.67,293.57,130.75Z" style="fill:#263238"></path><path d="M294.43,129.71c1.57-.13,1.73,3,.28,3.14S293.12,129.83,294.43,129.71Z" style="fill:#263238"></path><path d="M285.38,128.39c.43-.12.8-.29,1.22-.45a2,2,0,0,0,1.15-.69.65.65,0,0,0-.12-.8,1.64,1.64,0,0,0-1.67-.15,2.41,2.41,0,0,0-1.38,1.06A.71.71,0,0,0,285.38,128.39Z" style="fill:#263238"></path><path d="M295.63,127.06a11,11,0,0,1-1.26-.31,2.06,2.06,0,0,1-1.22-.56.68.68,0,0,1,0-.81,1.65,1.65,0,0,1,1.64-.33,2.39,2.39,0,0,1,1.5.91A.71.71,0,0,1,295.63,127.06Z" style="fill:#263238"></path><path d="M287.24,139.83c.24.23.47.54.83.56a2.52,2.52,0,0,0,1-.25,0,0,0,0,1,.05.05,1.34,1.34,0,0,1-1.24.54,1,1,0,0,1-.77-.85C287.13,139.82,287.2,139.8,287.24,139.83Z" style="fill:#263238"></path><path d="M288.23,136.89a3.36,3.36,0,0,0,2.24,1.46,4.38,4.38,0,0,0,1.2,0,1.46,1.46,0,0,0,.22,0l.22,0c.11,0,.17-.11.19-.22h0a.31.31,0,0,0,0-.1h0v-.09c0-.75-.08-1.89-.08-1.89.28.13,1.69.75,1.66.35a49.76,49.76,0,0,0-1.41-10.05.09.09,0,0,0-.17,0c.1,3.13.75,6.22.9,9.37a6.18,6.18,0,0,0-1.58-.46c-.11,0,.21,2.21.17,2.55v0a4.59,4.59,0,0,1-3.46-1C288.25,136.75,288.17,136.82,288.23,136.89Z" style="fill:#263238"></path><path d="M291.22,138a3.93,3.93,0,0,1-1.57,1.24,1.71,1.71,0,0,1-1.08.08c-.78-.19-.81-.91-.67-1.52a4.06,4.06,0,0,1,.34-.94A5.11,5.11,0,0,0,291.22,138Z" style="fill:#263238"></path><path d="M289.65,139.25a1.71,1.71,0,0,1-1.08.08c-.78-.19-.81-.91-.67-1.52A1.82,1.82,0,0,1,289.65,139.25Z" style="fill:#ff9bbc"></path><path d="M275.69,133.05s-3.5-8.68-2.31-13.18c.54-2,3.58-3,3.58-3a4.73,4.73,0,0,1,2.24-4.45c2.82-1.91,8.65-.43,8.65-.43s4.74-4.91,9.81-1.83.53,8.66.53,8.66,1.53,3.15-3.69,4.56-14.42-2.31-14.42-2.31a34.16,34.16,0,0,1-1.79,10A3.11,3.11,0,0,1,275.69,133.05Z" style="fill:#263238"></path><path d="M288.78,112.25a9.6,9.6,0,0,0-3.71-1.32,10.15,10.15,0,0,0-3.52,0,5.78,5.78,0,0,0-4.72,3.63,4,4,0,0,0,.27,3.12s.08,0,.06,0c-1-1.75,0-4.06,1.56-5.15a8.65,8.65,0,0,1,6.07-1.18,16.7,16.7,0,0,1,3.93,1.07A.06.06,0,0,0,288.78,112.25Z" style="fill:#263238"></path><path d="M301.12,113.44a4.74,4.74,0,0,0-2.74-3.49,8,8,0,0,0-5.16-.65,10,10,0,0,0-4.71,2.43s0,.07,0,0a8.9,8.9,0,0,1,8.9-1.76,4.88,4.88,0,0,1,3.09,2.94,4.82,4.82,0,0,1-.78,4,9,9,0,0,1-4.06,2.93s0,.07,0,.06a9.28,9.28,0,0,0,4-2.4A5.26,5.26,0,0,0,301.12,113.44Z" style="fill:#263238"></path><path d="M295.63,123.86a16.41,16.41,0,0,1-7,.07,33.8,33.8,0,0,1-7-2.15c-1.31-.56-2.61-1.16-3.89-1.79-.05,0-.07,0,0,.07a37.48,37.48,0,0,0,7,3.46,18.33,18.33,0,0,0,7.11,1.09,15.3,15.3,0,0,0,3.9-.7S295.66,123.85,295.63,123.86Z" style="fill:#263238"></path><path d="M279,132.69s-2.72-4.93-4.93-4-.49,7.84,1.86,9a2.49,2.49,0,0,0,3.47-1Z" style="fill:#ad6359"></path><path d="M274.61,130.65s-.05,0,0,.07a6.33,6.33,0,0,1,2.84,4.27,1.38,1.38,0,0,0-2-.59.05.05,0,0,0,0,.09,1.55,1.55,0,0,1,1.63.72,7.51,7.51,0,0,1,.66,1.44c.06.16.35.11.31-.07v0C278.31,134.36,276.94,131.12,274.61,130.65Z" style="fill:#263238"></path><path d="M287.5,150.61l-3.66,7.9-9.49-10.72-3,3.13s9,16.71,9.07,16l3.68-6.78,4.55,5.09.23-12.17Z" style="fill:#ebebeb"></path><path d="M289.09,159.2c0-2,0-4-.12-6a.07.07,0,0,0-.14,0c-.5,1.91-.34,9.59-.45,11.43l0,0c-.19-.21-4.23-4.48-4.27-4.42-.78,1.07-3.48,6-3.67,6.46-1.42-2.66-6.88-12.32-8.59-14.85-.05-.07-.16,0-.12.06,1.23,2.79,8.44,15.8,8.57,15.77a77.22,77.22,0,0,0,3.85-7.17c.67.92,4.73,5.71,4.76,5.41A63.18,63.18,0,0,0,289.09,159.2Z" style="fill:#263238"></path></g><g id="freepik--Shield--inject-128"><path d="M170,145.56s-7.34,58.76-19.4,72c-14.48,15.86-25,13.55-30.84,21.72,0,0,0,0,0,0-5.85-8.19-16.36-5.86-30.85-21.74-12.06-13.22-19.39-72-19.39-72,31.79-15.43,50.24-32.72,50.24-32.72h0C120.36,113.38,138.74,130.38,170,145.56Z" style="fill:#FF723A"></path><path d="M119.79,112.85V239.26s0,0,0,0c-5.85-8.19-16.36-5.86-30.85-21.74-12.06-13.22-19.39-72-19.39-72,31.79-15.43,50.24-32.72,50.24-32.72Z" style="opacity:0.1"></path><path d="M77.34,150.29s6.2,49.64,16.38,60.82c12.25,13.41,21.13,11.44,26.07,18.35,4.94-6.91,13.82-4.94,26.07-18.35,10.18-11.18,16.37-60.82,16.37-60.82-26.85-13-42.44-27.64-42.44-27.64S104.19,137.25,77.34,150.29Z" style="fill:#FF723A"></path><path d="M162.22,150.3s-6.2,49.63-16.39,60.81c-12.23,13.41-21.11,11.45-26.05,18.34V122.66C120.25,123.11,135.79,137.46,162.22,150.3Z" style="opacity:0.1"></path><path d="M132.15,163.63V177h-3.77V163.63c0-5.08-3.85-9.2-8.6-9.2s-8.59,4.12-8.59,9.2V177h-3.77V163.63c0-7.27,5.54-13.18,12.36-13.18S132.15,156.36,132.15,163.63Z" style="fill:#c7c7c7"></path><polygon points="107.42 167.1 111.19 167.25 111.19 176.97 107.42 176.97 107.42 167.1" style="fill:#a6a6a6"></polygon><polygon points="132.15 168.1 132.15 176.97 128.38 176.97 128.38 167.95 132.15 168.1" style="fill:#a6a6a6"></polygon><rect x="102.58" y="169.37" width="34.4" height="31.21" style="fill:#ebebeb"></rect><path d="M121.24,186.12l1.44,6.83h-6.11l1.44-6.83a3.06,3.06,0,1,1,3.23,0Z" style="fill:#263238"></path></g><g id="freepik--Plant--inject-128"><path d="M407.61,366.3c-6.39-13.13-17.57-19.88-30.17-16.15s-14.55,21.3-5.14,25.73,18.81-8.52,23.78-11.18S407.61,366.3,407.61,366.3Z" style="fill:#FF723A"></path><path d="M413.79,401.25c0-1.58-.09-3.16-.15-4.74-.11-3.16-.21-6.32-.33-9.48-.22-5.78-.84-11.46-3.23-16.79a26,26,0,0,0-10.14-11.68,21.65,21.65,0,0,0-5.33-2.3,12.43,12.43,0,0,0-6.21-3.41,25.17,25.17,0,0,0-8.87-.22c-.1,0-.1.18,0,.16a21.35,21.35,0,0,1,8.38.6,17.53,17.53,0,0,1,3.38,1.31,17.09,17.09,0,0,1,2,1.24,18.18,18.18,0,0,0-7.7.08,16.8,16.8,0,0,0-2.68.88,7.82,7.82,0,0,0-2.1-.18,12.57,12.57,0,0,0-2.72.39,21,21,0,0,0-5.19,2.26.08.08,0,0,0,.09.14,19.44,19.44,0,0,1,5.06-1.9,16.3,16.3,0,0,1,2.6-.38,11.69,11.69,0,0,1,1.45,0,16.68,16.68,0,0,0-8.15,8.12c0,.09.1.18.15.08a15.26,15.26,0,0,1,10.38-8.32c.28-.08.56-.11.84-.17a11.39,11.39,0,0,0-.13,1.27c-.09.64-.2,1.28-.32,1.91a33.41,33.41,0,0,1-1,3.84,29.5,29.5,0,0,1-1.53,3.73,17.41,17.41,0,0,1-2.13,3.6.08.08,0,1,0,.14.09c.75-1.18,1.63-2.27,2.32-3.51a25.82,25.82,0,0,0,2.84-7.6c.13-.71.25-1.42.33-2.14a5.14,5.14,0,0,0,.08-1.3,17.15,17.15,0,0,1,4.47-.09c-.56,3.13-1.16,6.4-2.91,9.12-.06.09.09.17.14.08a36.23,36.23,0,0,0,2.17-4.48,17.06,17.06,0,0,0,1.08-4.67,20.65,20.65,0,0,1,7.39,2.48,24.42,24.42,0,0,1,9.85,10.78,40.3,40.3,0,0,1,3.65,15.44c.42,6.71.51,13.46,1.18,20.16,0,.43.74.58.82.09A22.54,22.54,0,0,0,413.79,401.25Z" style="fill:#263238"></path><path d="M399,357.51a7.4,7.4,0,0,0-1.45-1.34c-.53-.44-1.06-.85-1.62-1.24a12.5,12.5,0,0,0-3.63-1.68.08.08,0,1,0,0,.16,9.9,9.9,0,0,1,3.58,1.76c.53.4,1.05.82,1.54,1.25a9.63,9.63,0,0,0,1.47,1.25A.12.12,0,0,0,399,357.51Z" style="fill:#263238"></path><path d="M378.64,362.27a37.93,37.93,0,0,0-2.93,3.88,23,23,0,0,0-2.18,4.32s.05.07.08,0a51.56,51.56,0,0,1,5.15-8.12C378.83,362.3,378.71,362.19,378.64,362.27Z" style="fill:#263238"></path><path d="M392.38,361a8.9,8.9,0,0,1-.72,2.37,15.17,15.17,0,0,1-1.21,2.11s0,.09.07.05a8.6,8.6,0,0,0,2-4.49C392.56,360.9,392.4,360.86,392.38,361Z" style="fill:#263238"></path><path d="M412.9,366.62s9.05-11.37,26.51-7.34c16.59,3.83,24.25,34.26,7.48,37.9S433.08,372.67,427,367.89C422.49,364.38,416,365.13,412.9,366.62Z" style="fill:#FF723A"></path><path d="M452.89,375.9a34.12,34.12,0,0,0-3.59-2.75,15.51,15.51,0,0,0-3.84-1.92,22.15,22.15,0,0,0-7.55-7.13l.52,0c.93,0,1.85,0,2.77,0a15.44,15.44,0,0,1,5.39,1.35.09.09,0,0,0,.07-.16,24.55,24.55,0,0,0-5.38-1.62,15.45,15.45,0,0,0-2.72-.23c-.49,0-1,0-1.47.08l-.28,0a23.18,23.18,0,0,0-5-1.85l.48-.14a25.39,25.39,0,0,1,2.59-.42,20.35,20.35,0,0,1,5.23.08c.1,0,.13-.15,0-.16a32.26,32.26,0,0,0-5.29-.22,22.77,22.77,0,0,0-4.39.57,22.26,22.26,0,0,0-3.18-.36c-6.09-.26-12.72,2-16.47,7s-4.48,11.69-5.15,17.73a135.41,135.41,0,0,0-.67,25.38c0,.5.75.41.76-.07.23-7.17.48-14.35,1.17-21.5.32-3.31.67-6.63,1.22-9.91a29,29,0,0,1,2.41-8.17,15,15,0,0,1,5.89-6.34,20,20,0,0,1,8.35-2.56,22.41,22.41,0,0,1,7.83.73,5,5,0,0,0,0,1.55,8.32,8.32,0,0,0,.38,1.9,10.24,10.24,0,0,0,.73,1.7c.32.6.73,1.13,1.09,1.71.06.09.2,0,.13-.1a8,8,0,0,1-1.35-3.44,13.49,13.49,0,0,1-.21-1.78c0-.45,0-.91,0-1.35a23,23,0,0,1,7.62,4c.42.34.83.7,1.23,1.07a9.08,9.08,0,0,0-1.48,1.82,18.23,18.23,0,0,0-1.55,2.76,23.63,23.63,0,0,0-1.61,6.08c0,.1.15.13.16,0a17.38,17.38,0,0,1,2-5.76,22.72,22.72,0,0,1,1.54-2.55c.3-.42.6-.84.92-1.24.17-.22.36-.44.52-.67a23.79,23.79,0,0,1,4.95,7l0,0a11.8,11.8,0,0,0-2,2.94,26.42,26.42,0,0,0-1.64,3.49,56.88,56.88,0,0,0-2.08,7.12c0,.1.14.14.16,0a29.7,29.7,0,0,1,2.48-7c.52-1.1,1.07-2.17,1.65-3.24a29.83,29.83,0,0,0,1.64-3.05,22.48,22.48,0,0,1,2,8.09.09.09,0,0,0,.17,0A28.23,28.23,0,0,0,446,372c1.07.46,2.14.9,3.17,1.45a18.27,18.27,0,0,1,3.63,2.55C452.87,376.1,453,376,452.89,375.9Z" style="fill:#263238"></path><path d="M440.09,376.55c-.52,1.72-1.18,3.39-1.66,5.14a19.78,19.78,0,0,0-.77,5.13c0,.05.08.05.09,0a49.22,49.22,0,0,1,2.5-10.22A.08.08,0,1,0,440.09,376.55Z" style="fill:#263238"></path><path d="M451.15,372.27a9.84,9.84,0,0,0-2.31-1.65,16.72,16.72,0,0,0-2.68-.95c-.1,0-.14.14,0,.17a10.17,10.17,0,0,1,2.58,1.06,19.76,19.76,0,0,1,2.37,1.45A.05.05,0,1,0,451.15,372.27Z" style="fill:#263238"></path><path d="M421.5,351.44s1.67-20.43,16.86-27.05c12.68-5.52,19.93,8.72,11,17.45C442.08,348.89,430.45,345.71,421.5,351.44Z" style="fill:#FF723A"></path><path d="M446.52,328.35a62.13,62.13,0,0,0-6.75,3.2,49.59,49.59,0,0,0-5.24,3.48c.25-.52.47-1.06.72-1.56.4-.79.82-1.57,1.29-2.31a21.8,21.8,0,0,1,3.35-4.24c.07-.07-.05-.19-.12-.11a32.88,32.88,0,0,0-3.53,4.1,24.81,24.81,0,0,0-1.44,2.31,9.45,9.45,0,0,0-1,2.35l-.17.12a49.65,49.65,0,0,0-7.25,7.1c0-.2.09-.4.14-.59.28-1,.59-2,.92-3a25.48,25.48,0,0,1,2.74-6c.06-.09-.09-.18-.15-.08a48.72,48.72,0,0,0-3.17,5.81,21.15,21.15,0,0,0-1,3,12.54,12.54,0,0,0-.5,2.05c-.66.83-1.31,1.68-1.92,2.55-6.52,9.28-9.79,20.51-10.58,31.74a99.28,99.28,0,0,0-.17,10.06,64.36,64.36,0,0,0,.89,10.1.19.19,0,0,0,.37-.06c-.08-3-.38-5.89-.44-8.84s.05-5.92.29-8.87A82.21,82.21,0,0,1,417,363.38,62.24,62.24,0,0,1,424.76,347c.64-.13,1.27-.3,1.9-.46s1.52-.39,2.27-.6a23.65,23.65,0,0,0,4.24-1.55c.09-.05,0-.2-.09-.15a13.33,13.33,0,0,1-4.29,1.48c-1.19.24-2.43.4-3.62.67a57.23,57.23,0,0,1,3.53-4.64,26.16,26.16,0,0,0,8.64-.65,34.37,34.37,0,0,0,4.43-1.37c1.52-.59,3-1.34,4.46-2,.11-.05,0-.21-.07-.15a25.44,25.44,0,0,1-8.76,2.87,53.54,53.54,0,0,1-8.19.67c1.08-1.23,2.19-2.44,3.38-3.57,4-3.8,8.73-7.29,14-9.11C446.67,328.47,446.62,328.31,446.52,328.35Z" style="fill:#263238"></path><path d="M434.17,328.41a22.32,22.32,0,0,0-1.87,2.73A14.93,14.93,0,0,0,431,334.3s.05.06.07,0c.5-1,.93-2,1.44-3a15,15,0,0,1,1.82-2.76C434.35,328.44,434.23,328.33,434.17,328.41Z" style="fill:#263238"></path><path d="M448.28,335.21a15.72,15.72,0,0,1-3.11,1.3,27,27,0,0,1-3.17.85c-.05,0,0,.1,0,.09a15.47,15.47,0,0,0,3.29-.72,26.4,26.4,0,0,0,3.07-1.38C448.47,335.31,448.38,335.16,448.28,335.21Z" style="fill:#263238"></path><path d="M409.7,347.76c-.1.88-2.3-7.41-15.14-14.78-11.66-6.69-25.58-24.09-14.14-35.08C389.64,289,414,308.37,409.7,347.76Z" style="fill:#FF723A"></path><path d="M418.53,395.34a227.59,227.59,0,0,0-2-25.82,116.07,116.07,0,0,0-5.43-23.11c-.95-2.7-2-5.35-3.23-8a18.23,18.23,0,0,0,0-3.05c-.06-1.31-.18-2.62-.3-3.92s-.25-2.61-.41-3.91-.43-2.59-.48-3.89a.09.09,0,1,0-.17,0,26,26,0,0,1,.46,4.13q.15,1.89.21,3.78c0,1.26,0,2.53,0,3.79,0,.46,0,.94-.05,1.43-1.2-2.55-2.5-5.06-3.9-7.51.87-5.32-.26-10.89-1.35-16.09,0-.11-.18-.06-.16,0a44.75,44.75,0,0,1,.85,8.25c.05,2.18,0,4.37-.06,6.55l-.93-1.56c-1.67-2.72-3.45-5.39-5.33-8a12.68,12.68,0,0,0-.13-3.79,29.29,29.29,0,0,0-.93-4.15c-.41-1.36-.88-2.69-1.42-4s-1.3-2.63-1.83-4c0-.11-.22,0-.16.07a19.27,19.27,0,0,1,1.61,4,36,36,0,0,1,1,4c.27,1.35.5,2.71.69,4.07.12.9.2,1.84.36,2.75a99.54,99.54,0,0,0-9-10.46.09.09,0,0,0-.12.12A118.15,118.15,0,0,1,399.4,325c.14.24.27.48.41.71-.71-.44-1.52-.79-2.19-1.16l-3.74-2.06c-1.22-.65-2.43-1.32-3.64-2-.62-.34-1.23-.7-1.87-1a14.29,14.29,0,0,1-2.17-1.2c-.1-.07-.21.07-.1.13,1.23.68,2.33,1.69,3.52,2.45s2.42,1.51,3.67,2.2c2.28,1.27,4.76,2.19,7,3.51,1.56,2.72,3,5.52,4.32,8.37q-2-1.31-4.17-2.49c-.91-.51-1.82-1-2.74-1.5a13.61,13.61,0,0,1-2.59-1.56.08.08,0,1,0-.11.12,24.43,24.43,0,0,0,4.93,3.43c1.65,1,3.32,1.9,5,2.74,1.37,3,2.62,6.07,3.72,9.18,5.4,15.31,7.39,31.55,8.34,47.68.28,4.81.42,9.62.48,14.44s-.19,9.61-.18,14.42c0,.14.23.18.25,0,.58-4.27.68-8.6.87-12.9S418.63,399.71,418.53,395.34Z" style="fill:#263238"></path><path d="M395.21,326.06a60.27,60.27,0,0,1-6.82-3.53,71.54,71.54,0,0,1-6.48-4.11s-.08,0-.05.06a55.48,55.48,0,0,0,6.22,4.35,63.33,63.33,0,0,0,7.05,3.38C395.23,326.25,395.31,326.1,395.21,326.06Z" style="fill:#263238"></path><path d="M398.93,308.76c-.19-.74-.43-1.48-.68-2.2a.07.07,0,0,0,0-.09c-.16-.41-.33-.82-.5-1.23l-.06-.15-.09-.24s-.06,0-.05,0,.08.29.13.43a2.17,2.17,0,0,0,.07.24,61.76,61.76,0,0,1,1.9,8.71c0,.1.16.1.15,0A29.15,29.15,0,0,0,398.93,308.76Z" style="fill:#263238"></path><polygon points="432.1 398.44 431.19 409.3 428.38 442.42 398.34 442.42 395.53 409.3 394.62 398.44 432.1 398.44" style="fill:#37474f"></polygon><polygon points="432.1 398.44 431.19 409.3 395.53 409.3 394.62 398.44 432.1 398.44" style="fill:#263238"></polygon><rect x="391.67" y="394.08" width="43.38" height="10.42" style="fill:#37474f"></rect></g></svg>